<svg height="1024" legacy-metrics="false" node-id="1" sillyvg="true" template-height="1024" template-width="1024" version="1.1" viewBox="0 0 1024 1024" width="1024" xmlns="http://www.w3.org/2000/svg" xmlns:xlink="http://www.w3.org/1999/xlink"><defs node-id="196"></defs><g node-id="437"><path d="M 516.65 741.75 L 685.52 740.80 L 815.65 738.25 L 908.83 733.99 L 936.12 730.91 L 939.65 729.25 L 936.00 727.41 L 908.52 724.12 L 815.65 719.75 L 686.65 717.21 L 516.65 716.25 L 347.09 717.21 L 218.15 719.75 L 125.28 724.12 L 97.80 727.41 L 94.15 729.25 L 97.68 730.91 L 124.97 733.99 L 218.15 738.25 L 347.84 740.80 L 516.65 741.75 Z" fill="#1d1d1b" fill-opacity="0.09803922" fill-rule="nonzero" group-id="1" node-id="200" stroke-linecap="butt" stroke-width="10" target-height="25.5" target-width="845.5" target-x="94.15" target-y="716.25"></path></g><g node-id="438"><path d="M 675.65 328.25 L 92.65 328.25 L 92.15 677.75 L 265.15 677.75 L 276.15 641.75 L 279.87 634.04 L 286.15 627.75 L 294.13 623.63 L 303.15 622.25 L 356.15 622.25 L 365.17 623.63 L 373.15 627.75 L 379.43 634.04 L 383.15 641.75 L 394.15 677.75 L 660.15 677.75 L 666.17 676.62 L 671.15 673.25 L 674.52 668.27 L 675.65 662.25 L 675.65 328.25 Z" fill="#dad1d1" fill-rule="nonzero" group-id="2" node-id="205" stroke-linecap="butt" stroke-width="10" target-height="349.5" target-width="583.5" target-x="92.1499" target-y="328.25"></path></g><g node-id="439"><path d="M 145.65 282.25 L 132.82 283.75 L 121.09 288.19 L 110.15 295.75 L 101.49 305.21 L 95.72 315.93 L 92.65 328.25 L 675.65 328.25 L 675.65 303.25 L 674.17 295.29 L 669.65 288.25 L 662.96 283.77 L 654.65 282.25 L 145.65 282.25 Z" fill="#e75c5b" fill-rule="nonzero" group-id="3" node-id="210" stroke-linecap="butt" stroke-width="10" target-height="46" target-width="583" target-x="92.6499" target-y="282.25"></path></g><g node-id="440"><path d="M 88.15 600.25 L 88.65 577.25 L 87.65 554.25 L 82.79 556.09 L 79.25 562.51 L 77.65 577.25 L 79.33 592.21 L 83.02 598.59 L 88.15 600.25 Z" fill="#e75c5b" fill-rule="nonzero" group-id="4" node-id="215" stroke-linecap="butt" stroke-width="10" target-height="46" target-width="11" target-x="77.6499" target-y="554.25"></path></g><g node-id="441"><path d="M 93.15 554.25 L 94.15 551.25 L 88.15 553.25 L 85.15 553.75 L 84.02 574.96 L 85.65 600.75 L 88.15 601.25 L 94.65 603.25 L 93.65 600.25 L 92.15 577.25 L 93.15 554.25 Z" fill="#dad1d1" fill-rule="nonzero" group-id="5" node-id="220" stroke-linecap="butt" stroke-width="10" target-height="52" target-width="10.631836" target-x="84.01807" target-y="551.25"></path></g><g node-id="442"><path d="M 919.15 661.75 L 919.15 591.75 L 745.65 591.75 L 745.65 670.25 L 764.65 677.25 L 903.65 673.75 L 919.15 661.75 Z" fill="#3e312c" fill-rule="nonzero" group-id="6" node-id="225" stroke-linecap="butt" stroke-width="10" target-height="85.5" target-width="173.5" target-x="745.6499" target-y="591.75"></path></g><g node-id="443"><path d="M 417.15 661.75 L 417.15 591.75 L 243.65 591.75 L 243.65 670.25 L 265.15 677.75 L 394.15 677.75 L 417.15 661.75 Z" fill="#3e312c" fill-rule="nonzero" group-id="7" node-id="230" stroke-linecap="butt" stroke-width="10" target-height="86" target-width="173.5" target-x="243.6499" target-y="591.75"></path></g><g node-id="444"><path d="M 831.15 394.25 L 825.52 396.13 L 823.65 401.75 L 823.65 492.25 L 824.91 498.66 L 828.65 503.75 L 834.16 507.50 L 840.65 508.75 L 882.65 508.75 L 881.65 505.25 L 865.70 451.41 L 844.65 398.25 L 843.15 394.25 L 831.15 394.25 Z" fill="#abede3" fill-rule="nonzero" group-id="8" node-id="235" stroke-linecap="butt" stroke-width="10" target-height="114.5" target-width="59" target-x="823.6499" target-y="394.25"></path></g><g node-id="445"><path d="M 688.15 379.25 L 675.65 379.25 L 675.65 661.75 L 688.15 661.75 L 688.15 379.25 Z" fill="#3e312c" fill-rule="nonzero" group-id="9" node-id="240" stroke-linecap="butt" stroke-width="10" target-height="282.5" target-width="12.5" target-x="675.6499" target-y="379.25"></path></g><g node-id="446"><path d="M 694.15 365.25 L 689.63 371.80 L 688.15 379.25 L 688.15 663.75 L 689.13 668.94 L 692.15 673.75 L 696.61 676.73 L 702.15 677.75 L 764.65 677.25 L 777.15 634.75 L 782.39 623.55 L 790.86 617.09 L 803.65 614.75 L 865.65 614.75 L 874.59 616.15 L 882.15 620.25 L 888.40 626.62 L 892.15 634.75 L 903.65 673.75 L 924.65 667.25 L 931.47 663.56 L 935.65 657.75 L 937.65 649.75 L 937.15 558.25 L 935.57 549.73 L 930.65 541.75 L 882.65 508.75 L 840.65 508.75 L 834.16 507.50 L 828.65 503.75 L 824.91 498.66 L 823.65 492.25 L 823.65 401.75 L 825.52 396.12 L 831.15 394.25 L 843.15 394.25 L 841.85 386.24 L 833.65 376.75 L 817.04 368.15 L 789.42 361.81 L 746.15 359.25 L 708.15 359.25 L 700.70 360.73 L 694.15 365.25 Z" fill="#e75c5b" fill-rule="nonzero" group-id="10" node-id="245" stroke-linecap="butt" stroke-width="10" target-height="318.5" target-width="249.5" target-x="688.1499" target-y="359.25"></path></g><g node-id="447"><path d="M 940.65 579.25 L 941.15 601.25 L 945.19 599.34 L 948.25 593.07 L 949.65 578.75 L 948.22 564.50 L 945.18 558.67 L 941.15 557.25 L 940.65 579.25 Z" fill="#f9b659" fill-rule="nonzero" group-id="11" node-id="250" stroke-linecap="butt" stroke-width="10" target-height="44" target-width="9" target-x="940.6499" target-y="557.25"></path></g><g node-id="448"><path d="M 941.15 559.25 L 941.65 557.25 L 935.15 557.25 L 934.27 576.57 L 935.65 601.25 L 941.65 601.25 L 941.15 598.75 L 940.65 579.25 L 941.15 559.25 Z" fill="#c44645" fill-rule="nonzero" group-id="12" node-id="255" stroke-linecap="butt" stroke-width="10" target-height="44" target-width="7.3830566" target-x="934.26685" target-y="557.25"></path></g><g node-id="449"><path d="M 708.15 391.25 L 703.65 397.87 L 702.15 405.75 L 702.15 638.75 L 703.42 645.67 L 707.15 651.25 L 713.07 655.02 L 719.65 656.25 L 743.65 656.25 L 752.32 654.68 L 758.26 650.32 L 762.15 642.75 L 768.42 624.12 L 775.15 613.75 L 784.53 607.58 L 798.65 604.25 L 805.07 602.42 L 810.65 597.75 L 814.03 591.86 L 815.15 585.25 L 815.15 408.25 L 813.56 398.64 L 809.15 391.75 L 802.83 386.90 L 794.65 385.25 L 722.65 385.25 L 714.77 386.75 L 708.15 391.25 Z" fill="#c44645" fill-rule="nonzero" group-id="13" node-id="260" stroke-linecap="butt" stroke-width="10" target-height="271" target-width="113" target-x="702.1499" target-y="385.25"></path></g><g node-id="450"><path d="M 724.15 392.25 L 718.61 393.46 L 713.65 397.25 L 710.29 402.72 L 709.15 409.25 L 709.15 494.25 L 710.27 500.35 L 713.65 505.75 L 718.60 509.54 L 724.15 510.75 L 793.15 510.75 L 798.70 509.54 L 803.65 505.75 L 807.03 500.35 L 808.15 494.25 L 808.15 409.25 L 807.01 402.72 L 803.65 397.25 L 798.70 393.46 L 793.15 392.25 L 724.15 392.25 Z" fill="#abede3" fill-rule="nonzero" group-id="14" node-id="265" stroke-linecap="butt" stroke-width="10" target-height="118.5" target-width="99" target-x="709.1499" target-y="392.25"></path></g><g node-id="451"><path d="M 552.15 547.75 L 527.95 527.47 L 501.81 513.26 L 473.26 504.69 L 441.65 501.75 L 92.15 501.75 L 92.15 677.75 L 265.15 677.75 L 276.15 641.75 L 279.87 634.04 L 286.15 627.75 L 294.13 623.63 L 303.15 622.25 L 356.15 622.25 L 365.17 623.63 L 373.15 627.75 L 379.43 634.04 L 383.15 641.75 L 394.15 677.75 L 598.15 677.75 L 598.15 657.75 L 595.22 626.41 L 586.66 598.02 L 572.46 571.95 L 552.15 547.75 Z" fill="#e75c5b" fill-rule="nonzero" group-id="15" node-id="270" stroke-linecap="butt" stroke-width="10" target-height="176" target-width="506" target-x="92.1499" target-y="501.75"></path></g><g node-id="452"><path d="M 441.65 557.25 L 92.15 557.25 L 92.15 677.75 L 265.15 677.75 L 276.15 641.75 L 279.87 634.04 L 286.15 627.75 L 294.13 623.63 L 303.15 622.25 L 356.15 622.25 L 365.17 623.63 L 373.15 627.75 L 379.43 634.04 L 383.15 641.75 L 394.15 677.75 L 542.65 677.75 L 542.65 657.75 L 540.77 637.58 L 535.29 619.27 L 526.18 602.43 L 513.15 586.75 L 497.23 573.71 L 480.21 564.60 L 461.81 559.12 L 441.65 557.25 Z" fill="#c44645" fill-rule="nonzero" group-id="16" node-id="275" stroke-linecap="butt" stroke-width="10" target-height="120.5" target-width="450.5" target-x="92.1499" target-y="557.25"></path></g><g node-id="453"><path d="M 948.65 618.75 L 946.65 617.75 L 926.15 617.75 L 918.84 619.15 L 913.15 623.25 L 909.05 628.94 L 907.65 636.25 L 907.65 647.25 L 910.15 653.75 L 916.65 656.25 L 946.65 656.25 L 948.65 655.25 L 951.56 642.54 L 951.53 630.49 L 948.65 618.75 Z" fill="#dad1d1" fill-rule="nonzero" group-id="17" node-id="280" stroke-linecap="butt" stroke-width="10" target-height="38.5" target-width="43.913086" target-x="907.6499" target-y="617.75"></path></g><g node-id="454"><path d="M 111.15 623.25 L 105.46 619.15 L 98.15 617.75 L 77.15 617.75 L 75.65 618.75 L 72.77 630.49 L 72.74 642.54 L 75.65 655.25 L 77.65 656.25 L 107.65 656.25 L 114.15 653.75 L 116.65 647.25 L 116.65 636.25 L 115.25 628.94 L 111.15 623.25 Z" fill="#dad1d1" fill-rule="nonzero" group-id="18" node-id="285" stroke-linecap="butt" stroke-width="10" target-height="38.5" target-width="43.913086" target-x="72.73682" target-y="617.75"></path></g><g node-id="455"><path d="M 858.15 546.25 L 862.15 548.25 L 864.65 547.75 L 866.77 544.89 L 866.15 541.25 L 837.65 497.75 L 835.20 495.64 L 831.65 496.25 L 829.02 499.14 L 830.15 502.75 L 858.15 546.25 Z" fill="#3e312c" fill-rule="nonzero" group-id="19" node-id="290" stroke-linecap="butt" stroke-width="10" target-height="52.611816" target-width="37.74951" target-x="829.021" target-y="495.63818"></path></g><g node-id="456"><path d="M 827.65 456.75 L 827.65 535.25 L 833.62 534.21 L 838.15 531.25 L 841.56 527.30 L 842.65 522.75 L 842.65 469.25 L 841.56 464.70 L 838.15 460.75 L 833.62 457.79 L 827.65 456.75 Z" fill="#c44645" fill-rule="nonzero" group-id="20" node-id="295" stroke-linecap="butt" stroke-width="10" target-height="78.5" target-width="15" target-x="827.6499" target-y="456.75"></path></g><g node-id="457"><path d="M 358.65 622.25 L 358.65 610.75 L 297.65 610.75 L 297.65 622.25 L 358.65 622.25 Z" fill="#c44645" fill-rule="nonzero" group-id="21" node-id="300" stroke-linecap="butt" stroke-width="10" target-height="11.5" target-width="61" target-x="297.6499" target-y="610.75"></path></g><g node-id="458"><path d="M 721.15 522.25 L 721.15 533.25 L 749.15 533.25 L 749.15 522.25 L 721.15 522.25 Z" fill="#ffffff" fill-rule="nonzero" group-id="22" node-id="305" stroke-linecap="butt" stroke-width="10" target-height="11" target-width="28" target-x="721.1499" target-y="522.25"></path></g><g node-id="459"><path d="M 649.65 294.75 L 649.65 315.75 L 650.31 318.04 L 652.15 318.75 L 654.40 318.00 L 655.15 315.75 L 655.15 294.75 L 654.40 292.50 L 652.15 291.75 L 650.31 292.46 L 649.65 294.75 Z" fill="#3e312c" fill-rule="nonzero" group-id="23" node-id="310" stroke-linecap="butt" stroke-width="10" target-height="27" target-width="5.5" target-x="649.6499" target-y="291.75"></path></g><g node-id="460"><path d="M 637.15 294.75 L 637.15 315.75 L 637.90 318.00 L 640.15 318.75 L 641.99 318.04 L 642.65 315.75 L 642.65 294.75 L 641.99 292.46 L 640.15 291.75 L 637.90 292.50 L 637.15 294.75 Z" fill="#3e312c" fill-rule="nonzero" group-id="24" node-id="315" stroke-linecap="butt" stroke-width="10" target-height="27" target-width="5.5" target-x="637.1499" target-y="291.75"></path></g><g node-id="461"><path d="M 625.15 294.75 L 625.15 315.75 L 625.81 318.04 L 627.65 318.75 L 629.90 318.00 L 630.65 315.75 L 630.65 294.75 L 629.90 292.50 L 627.65 291.75 L 625.81 292.46 L 625.15 294.75 Z" fill="#3e312c" fill-rule="nonzero" group-id="25" node-id="320" stroke-linecap="butt" stroke-width="10" target-height="27" target-width="5.5" target-x="625.1499" target-y="291.75"></path></g><g node-id="462"><path d="M 612.65 294.75 L 612.65 315.75 L 613.31 318.04 L 615.15 318.75 L 617.40 318.00 L 618.15 315.75 L 618.15 294.75 L 617.40 292.50 L 615.15 291.75 L 613.31 292.46 L 612.65 294.75 Z" fill="#3e312c" fill-rule="nonzero" group-id="26" node-id="325" stroke-linecap="butt" stroke-width="10" target-height="27" target-width="5.5" target-x="612.6499" target-y="291.75"></path></g><g node-id="463"><path d="M 600.15 294.75 L 600.15 315.75 L 600.90 318.00 L 603.15 318.75 L 604.99 318.04 L 605.65 315.75 L 605.65 294.75 L 604.99 292.46 L 603.15 291.75 L 600.90 292.50 L 600.15 294.75 Z" fill="#3e312c" fill-rule="nonzero" group-id="27" node-id="330" stroke-linecap="butt" stroke-width="10" target-height="27" target-width="5.5" target-x="600.1499" target-y="291.75"></path></g><g node-id="464"><path d="M 588.15 294.75 L 588.15 315.75 L 588.81 318.04 L 590.65 318.75 L 592.90 318.00 L 593.65 315.75 L 593.65 294.75 L 592.90 292.50 L 590.65 291.75 L 588.81 292.46 L 588.15 294.75 Z" fill="#3e312c" fill-rule="nonzero" group-id="28" node-id="335" stroke-linecap="butt" stroke-width="10" target-height="27" target-width="5.5" target-x="588.1499" target-y="291.75"></path></g><g node-id="465"><path d="M 575.65 294.75 L 575.65 315.75 L 576.31 318.04 L 578.15 318.75 L 580.40 318.00 L 581.15 315.75 L 581.15 294.75 L 580.40 292.50 L 578.15 291.75 L 576.31 292.46 L 575.65 294.75 Z" fill="#3e312c" fill-rule="nonzero" group-id="29" node-id="340" stroke-linecap="butt" stroke-width="10" target-height="27" target-width="5.5" target-x="575.6499" target-y="291.75"></path></g><g node-id="466"><path d="M 669.65 288.25 L 662.96 283.77 L 654.65 282.25 L 145.65 282.25 L 132.82 283.75 L 121.09 288.19 L 110.15 295.75 L 101.49 305.21 L 95.72 315.93 L 92.65 328.25 L 675.65 328.25 L 675.65 303.25 L 674.17 295.29 L 669.65 288.25 Z" fill="#1d1d1b" fill-opacity="0.09803922" fill-rule="nonzero" group-id="30" node-id="345" stroke-linecap="butt" stroke-width="10" target-height="46" target-width="583" target-x="92.65" target-y="282.25"></path></g><g node-id="467"><path d="M 948.65 655.25 L 951.17 643.26 L 951.65 631.75 L 84.65 555.25 L 79.57 561.67 L 77.65 577.75 L 78.84 589.79 L 81.69 596.46 L 85.65 599.75 L 85.65 600.75 L 92.15 602.25 L 92.15 617.75 L 77.15 617.75 L 75.65 618.75 L 72.77 630.49 L 72.74 642.54 L 75.65 655.25 L 77.65 656.25 L 92.15 656.25 L 92.15 677.75 L 660.15 677.75 L 666.17 676.62 L 671.15 673.25 L 674.52 668.27 L 675.65 662.25 L 675.65 661.75 L 688.15 661.75 L 688.15 663.75 L 689.13 668.94 L 692.15 673.75 L 696.61 676.73 L 702.15 677.75 L 903.65 673.75 L 924.65 667.25 L 931.47 663.56 L 935.65 657.75 L 936.15 656.25 L 946.65 656.25 L 948.65 655.25 Z" fill="#1d1d1b" fill-opacity="0.09803922" fill-rule="nonzero" group-id="31" node-id="350" stroke-linecap="butt" stroke-width="10" target-height="122.5" target-width="878.91284" target-x="72.73721" target-y="555.25"></path></g><g node-id="468"><path d="M 814.65 653.75 L 808.27 663.13 L 806.15 674.25 L 808.30 685.80 L 814.65 695.25 L 824.03 701.63 L 835.15 703.75 L 846.70 701.60 L 856.15 695.25 L 862.50 685.80 L 864.65 674.25 L 862.53 663.13 L 856.15 653.75 L 846.70 647.40 L 835.15 645.25 L 824.03 647.37 L 814.65 653.75 Z" fill="#1d1715" fill-rule="nonzero" group-id="32" node-id="355" stroke-linecap="butt" stroke-width="10" target-height="58.5" target-width="58.5" target-x="806.1499" target-y="645.25"></path></g><g node-id="469"><path d="M 889.65 674.25 L 887.86 659.91 L 882.59 647.22 L 873.65 635.75 L 862.48 626.86 L 849.81 621.57 L 835.15 619.75 L 820.81 621.54 L 808.12 626.81 L 796.65 635.75 L 787.74 647.23 L 782.46 660.08 L 780.65 674.75 L 782.44 689.09 L 787.71 701.78 L 796.65 713.25 L 808.12 722.19 L 820.81 727.46 L 835.15 729.25 L 849.82 727.44 L 862.67 722.16 L 874.15 713.25 L 883.01 701.77 L 888.12 688.93 L 889.65 674.25 M 859.15 650.75 L 866.37 661.31 L 869.15 674.25 L 866.66 687.23 L 859.15 698.25 L 848.13 705.76 L 835.15 708.25 L 822.25 705.74 L 811.65 698.25 L 804.14 687.23 L 801.65 674.25 L 804.16 661.35 L 811.65 650.75 L 822.25 643.26 L 835.15 640.75 L 848.13 643.24 L 859.15 650.75 Z" fill="#1d1715" fill-rule="nonzero" group-id="33" node-id="360" stroke-linecap="butt" stroke-width="10" target-height="109.5" target-width="109" target-x="780.6499" target-y="619.75"></path></g><g node-id="470"><path d="M 874.15 674.25 L 871.27 659.49 L 862.65 647.25 L 850.00 638.61 L 835.15 635.75 L 820.73 638.59 L 808.15 647.25 L 799.49 659.83 L 796.65 674.25 L 799.51 689.10 L 808.15 701.75 L 820.39 710.37 L 835.15 713.25 L 850.00 710.39 L 862.65 701.75 L 871.29 689.10 L 874.15 674.25 M 859.65 649.75 L 867.17 661.18 L 869.65 674.25 L 867.13 687.67 L 859.65 698.75 L 848.57 706.23 L 835.15 708.75 L 821.74 706.23 L 810.65 698.75 L 803.17 687.66 L 800.65 674.25 L 803.13 661.18 L 810.65 649.75 L 822.08 642.23 L 835.15 639.75 L 848.57 642.27 L 859.65 649.75 Z" fill="#dadada" fill-rule="nonzero" group-id="34" node-id="365" stroke-linecap="butt" stroke-width="10" target-height="77.5" target-width="77.5" target-x="796.6499" target-y="635.75"></path></g><g node-id="471"><path d="M 852.15 657.75 L 844.41 652.50 L 835.15 650.75 L 826.32 652.48 L 818.65 657.75 L 813.38 665.42 L 811.65 674.25 L 813.40 683.51 L 818.65 691.25 L 825.98 696.48 L 835.15 698.25 L 844.41 696.50 L 852.15 691.25 L 857.39 683.51 L 859.15 674.25 L 857.42 665.42 L 852.15 657.75 M 824.65 684.75 L 821.30 680.18 L 820.15 674.25 L 821.27 668.75 L 824.65 664.25 L 829.57 660.86 L 835.15 659.75 L 841.08 660.90 L 845.65 664.25 L 849.03 668.75 L 850.15 674.25 L 849.00 680.18 L 845.65 684.75 L 841.08 688.10 L 835.15 689.25 L 829.57 688.14 L 824.65 684.75 Z" fill="#ededed" fill-rule="nonzero" group-id="35" node-id="370" stroke-linecap="butt" stroke-width="10" target-height="47.5" target-width="47.5" target-x="811.6499" target-y="650.75"></path></g><g node-id="472"><path d="M 824.65 664.25 L 821.27 668.75 L 820.15 674.25 L 821.30 680.18 L 824.65 684.75 L 829.57 688.14 L 835.15 689.25 L 841.08 688.10 L 845.65 684.75 L 849.00 680.18 L 850.15 674.25 L 849.03 668.75 L 845.65 664.25 L 841.08 660.90 L 835.15 659.75 L 829.57 660.86 L 824.65 664.25 M 826.15 675.75 L 824.65 674.25 L 826.15 673.25 L 827.15 674.25 L 826.15 675.75 M 826.65 683.25 L 826.65 680.25 L 829.65 680.25 L 829.65 683.25 L 826.65 683.25 M 826.65 668.75 L 826.65 665.75 L 827.83 664.75 L 829.65 665.75 L 829.65 668.75 L 826.65 668.75 M 844.15 665.75 L 844.15 668.75 L 842.33 669.75 L 841.15 668.75 L 841.15 665.75 L 842.33 664.75 L 844.15 665.75 M 844.65 675.75 L 843.15 674.25 L 844.65 673.25 L 845.65 674.25 L 844.65 675.75 M 829.65 674.25 L 831.02 670.12 L 835.15 668.75 L 839.69 670.16 L 841.15 674.25 L 839.65 678.75 L 835.15 680.25 L 831.06 678.79 L 829.65 674.25 M 835.15 664.25 L 836.65 665.25 L 835.15 666.75 L 834.15 665.25 L 835.15 664.25 M 835.15 684.75 L 834.15 683.75 L 835.15 682.25 L 836.65 683.75 L 835.15 684.75 M 844.15 683.25 L 841.15 683.25 L 840.15 681.43 L 841.15 680.25 L 842.33 679.25 L 844.15 680.25 L 844.15 683.25 Z" fill="#dad1d1" fill-rule="nonzero" group-id="36" node-id="375" stroke-linecap="butt" stroke-width="10" target-height="29.5" target-width="30" target-x="820.1499" target-y="659.75"></path></g><g node-id="473"><path d="M 824.65 664.25 L 821.27 668.75 L 820.15 674.25 L 821.30 680.18 L 824.65 684.75 L 829.57 688.14 L 835.15 689.25 L 841.08 688.10 L 845.65 684.75 L 849.00 680.18 L 850.15 674.25 L 849.03 668.75 L 845.65 664.25 L 841.08 660.90 L 835.15 659.75 L 829.57 660.86 L 824.65 664.25 M 826.15 675.75 L 824.65 674.25 L 826.15 673.25 L 827.15 674.25 L 826.15 675.75 M 826.65 683.25 L 826.65 680.25 L 829.65 680.25 L 829.65 683.25 L 826.65 683.25 M 826.65 668.75 L 826.65 665.75 L 827.83 664.75 L 829.65 665.75 L 829.65 668.75 L 826.65 668.75 M 844.15 665.75 L 844.15 668.75 L 842.33 669.75 L 841.15 668.75 L 841.15 665.75 L 842.33 664.75 L 844.15 665.75 M 844.65 675.75 L 843.15 674.25 L 844.65 673.25 L 845.65 674.25 L 844.65 675.75 M 829.65 674.25 L 831.02 670.12 L 835.15 668.75 L 839.69 670.16 L 841.15 674.25 L 839.65 678.75 L 835.15 680.25 L 831.06 678.79 L 829.65 674.25 M 835.15 664.25 L 836.65 665.25 L 835.15 666.75 L 834.15 665.25 L 835.15 664.25 M 835.15 684.75 L 834.15 683.75 L 835.15 682.25 L 836.65 683.75 L 835.15 684.75 M 844.15 683.25 L 841.15 683.25 L 840.15 681.43 L 841.15 680.25 L 842.33 679.25 L 844.15 680.25 L 844.15 683.25 Z" fill="#c6c6c6" fill-rule="nonzero" group-id="37" node-id="380" stroke-linecap="butt" stroke-width="10" target-height="29.5" target-width="30" target-x="820.1499" target-y="659.75"></path></g><g node-id="474"><path d="M 869.65 674.25 L 867.17 661.18 L 859.65 649.75 L 848.57 642.27 L 835.15 639.75 L 822.08 642.23 L 810.65 649.75 L 803.13 661.18 L 800.65 674.25 L 803.17 687.67 L 810.65 698.75 L 821.74 706.23 L 835.15 708.75 L 848.57 706.23 L 859.65 698.75 L 867.13 687.66 L 869.65 674.25 M 863.65 657.75 L 864.01 660.80 L 862.15 662.75 L 859.38 663.25 L 857.15 661.75 L 856.75 659.45 L 858.65 657.25 L 861.81 656.64 L 863.65 657.75 M 858.65 691.75 L 856.75 689.55 L 857.15 687.25 L 859.38 685.75 L 862.15 686.25 L 864.28 688.15 L 863.65 690.75 L 862.05 692.47 L 858.65 691.75 M 868.15 674.25 L 867.27 676.88 L 864.65 677.75 L 861.61 676.84 L 860.65 674.25 L 861.56 672.07 L 864.65 671.25 L 867.32 672.04 L 868.15 674.25 M 847.15 647.75 L 849.05 645.74 L 851.65 645.75 L 853.40 648.00 L 852.65 650.75 L 850.75 652.76 L 848.15 652.75 L 846.42 650.83 L 847.15 647.75 M 832.15 645.25 L 832.94 642.58 L 835.15 641.75 L 837.77 642.62 L 838.65 645.25 L 837.74 648.29 L 835.15 649.25 L 832.97 648.34 L 832.15 645.25 M 835.15 650.75 L 844.41 652.50 L 852.15 657.75 L 857.42 665.42 L 859.15 674.25 L 857.40 683.51 L 852.15 691.25 L 844.41 696.50 L 835.15 698.25 L 825.97 696.48 L 818.65 691.25 L 813.40 683.51 L 811.65 674.25 L 813.38 665.42 L 818.65 657.75 L 826.32 652.48 L 835.15 650.75 M 823.65 647.75 L 824.40 650.50 L 822.65 652.75 L 819.95 652.77 L 817.65 650.75 L 816.90 648.00 L 818.65 645.75 L 821.68 645.76 L 823.65 647.75 M 811.65 657.25 L 813.78 659.15 L 813.15 661.75 L 811.60 663.73 L 808.65 662.75 L 806.35 660.50 L 806.65 658.25 L 808.57 656.52 L 811.65 657.25 M 810.15 674.25 L 809.19 676.84 L 806.15 677.75 L 803.11 676.84 L 802.15 674.25 L 803.06 672.07 L 806.15 671.25 L 809.24 672.07 L 810.15 674.25 M 806.65 690.75 L 806.35 688.50 L 808.65 686.25 L 811.15 685.75 L 813.15 687.25 L 813.78 689.85 L 811.65 691.75 L 808.57 692.48 L 806.65 690.75 M 835.15 707.25 L 832.94 706.42 L 832.15 703.75 L 832.97 700.66 L 835.15 699.75 L 837.74 700.71 L 838.65 703.75 L 837.78 706.38 L 835.15 707.25 M 847.15 701.25 L 846.65 698.48 L 848.15 696.25 L 850.40 695.95 L 852.65 698.25 L 853.63 701.20 L 851.65 702.75 L 849.05 703.38 L 847.15 701.25 M 817.15 700.75 L 818.15 698.25 L 820.40 695.95 L 822.65 696.25 L 824.15 698.48 L 823.65 701.25 L 821.70 703.11 L 818.65 702.75 L 817.15 700.75 Z" fill="#dad1d1" fill-rule="nonzero" group-id="38" node-id="385" stroke-linecap="butt" stroke-width="10" target-height="69" target-width="69" target-x="800.6499" target-y="639.75"></path></g><g node-id="475"><path d="M 359.65 674.25 L 357.53 663.13 L 351.15 653.75 L 341.36 647.36 L 330.15 645.25 L 319.03 647.37 L 309.65 653.75 L 303.27 663.13 L 301.15 674.25 L 303.30 685.80 L 309.65 695.25 L 319.03 701.63 L 330.15 703.75 L 341.36 701.64 L 351.15 695.25 L 357.50 685.80 L 359.65 674.25 Z" fill="#1d1715" fill-rule="nonzero" group-id="39" node-id="390" stroke-linecap="butt" stroke-width="10" target-height="58.5" target-width="58.5" target-x="301.1499" target-y="645.25"></path></g><g node-id="476"><path d="M 374.15 641.75 L 362.06 629.90 L 346.65 622.25 L 313.65 622.25 L 298.66 629.87 L 286.65 641.75 L 278.38 657.57 L 275.65 674.75 L 277.44 689.09 L 282.71 701.78 L 291.65 713.25 L 303.12 722.19 L 315.81 727.46 L 330.15 729.25 L 344.81 727.43 L 357.48 722.14 L 368.65 713.25 L 377.56 701.77 L 382.84 688.92 L 384.65 674.25 L 382.02 657.11 L 374.15 641.75 M 363.65 674.25 L 361.16 687.23 L 353.65 698.25 L 343.05 705.74 L 330.15 708.25 L 317.25 705.74 L 306.65 698.25 L 299.14 687.23 L 296.65 674.25 L 299.16 661.35 L 306.65 650.75 L 317.25 643.26 L 330.15 640.75 L 343.05 643.26 L 353.65 650.75 L 361.14 661.35 L 363.65 674.25 Z" fill="#1d1715" fill-rule="nonzero" group-id="40" node-id="395" stroke-linecap="butt" stroke-width="10" target-height="107" target-width="109" target-x="275.6499" target-y="622.25"></path></g><g node-id="477"><path d="M 369.15 674.25 L 366.00 659.45 L 357.65 647.25 L 345.00 638.61 L 330.15 635.75 L 315.30 638.61 L 302.65 647.25 L 294.42 659.45 L 291.65 674.25 L 294.51 689.10 L 303.15 701.75 L 315.39 710.37 L 330.15 713.25 L 345.00 710.39 L 357.65 701.75 L 366.29 689.10 L 369.15 674.25 M 364.65 674.25 L 362.13 687.67 L 354.65 698.75 L 343.56 706.23 L 330.15 708.75 L 316.74 706.23 L 305.65 698.75 L 298.17 687.66 L 295.65 674.25 L 298.13 661.18 L 305.65 649.75 L 317.08 642.23 L 330.15 639.75 L 343.56 642.27 L 354.65 649.75 L 362.17 661.18 L 364.65 674.25 Z" fill="#dadada" fill-rule="nonzero" group-id="41" node-id="400" stroke-linecap="butt" stroke-width="10" target-height="77.5" target-width="77.5" target-x="291.6499" target-y="635.75"></path></g><g node-id="478"><path d="M 354.15 674.25 L 352.42 665.42 L 347.15 657.75 L 339.41 652.50 L 330.15 650.75 L 321.32 652.48 L 313.65 657.75 L 308.38 665.42 L 306.65 674.25 L 308.40 683.51 L 313.65 691.25 L 320.98 696.48 L 330.15 698.25 L 339.41 696.50 L 347.15 691.25 L 352.40 683.51 L 354.15 674.25 M 319.65 684.75 L 316.30 680.18 L 315.15 674.25 L 316.27 668.75 L 319.65 664.25 L 324.57 660.86 L 330.15 659.75 L 336.08 660.90 L 340.65 664.25 L 344.03 668.75 L 345.15 674.25 L 344.00 680.18 L 340.65 684.75 L 336.08 688.10 L 330.15 689.25 L 324.57 688.14 L 319.65 684.75 Z" fill="#ededed" fill-rule="nonzero" group-id="42" node-id="405" stroke-linecap="butt" stroke-width="10" target-height="47.5" target-width="47.5" target-x="306.6499" target-y="650.75"></path></g><g node-id="479"><path d="M 319.65 664.25 L 316.27 668.75 L 315.15 674.25 L 316.30 680.18 L 319.65 684.75 L 324.57 688.14 L 330.15 689.25 L 336.08 688.10 L 340.65 684.75 L 344.00 680.18 L 345.15 674.25 L 344.03 668.75 L 340.65 664.25 L 336.08 660.90 L 330.15 659.75 L 324.57 660.86 L 319.65 664.25 M 321.15 675.75 L 319.65 674.25 L 321.15 673.25 L 322.15 674.25 L 321.15 675.75 M 339.15 665.75 L 339.15 668.75 L 337.33 669.75 L 336.15 668.75 L 336.15 665.75 L 337.33 664.75 L 339.15 665.75 M 338.15 674.25 L 339.15 673.25 L 340.65 674.25 L 339.15 675.75 L 338.15 674.25 M 324.65 674.25 L 326.03 670.12 L 330.15 668.75 L 334.27 670.12 L 335.65 674.25 L 334.23 678.79 L 330.15 680.25 L 326.06 678.79 L 324.65 674.25 M 330.15 664.25 L 331.65 665.25 L 330.15 666.75 L 329.15 665.25 L 330.15 664.25 M 324.65 665.75 L 324.65 668.75 L 322.83 669.75 L 321.65 668.75 L 321.65 665.75 L 322.83 664.75 L 324.65 665.75 M 324.65 683.25 L 322.83 684.25 L 321.65 683.25 L 321.65 680.25 L 322.83 679.25 L 324.65 680.25 L 324.65 683.25 M 330.15 684.75 L 329.15 683.75 L 330.15 682.25 L 331.65 683.75 L 330.15 684.75 M 336.15 683.25 L 335.15 681.43 L 336.15 680.25 L 337.33 679.25 L 339.15 680.25 L 339.15 683.25 L 336.15 683.25 Z" fill="#dad1d1" fill-rule="nonzero" group-id="43" node-id="410" stroke-linecap="butt" stroke-width="10" target-height="29.5" target-width="30" target-x="315.1499" target-y="659.75"></path></g><g node-id="480"><path d="M 319.65 664.25 L 316.27 668.75 L 315.15 674.25 L 316.30 680.18 L 319.65 684.75 L 324.57 688.14 L 330.15 689.25 L 336.08 688.10 L 340.65 684.75 L 344.00 680.18 L 345.15 674.25 L 344.03 668.75 L 340.65 664.25 L 336.08 660.90 L 330.15 659.75 L 324.57 660.86 L 319.65 664.25 M 321.15 675.75 L 319.65 674.25 L 321.15 673.25 L 322.15 674.25 L 321.15 675.75 M 339.15 665.75 L 339.15 668.75 L 337.33 669.75 L 336.15 668.75 L 336.15 665.75 L 337.33 664.75 L 339.15 665.75 M 338.15 674.25 L 339.15 673.25 L 340.65 674.25 L 339.15 675.75 L 338.15 674.25 M 324.65 674.25 L 326.03 670.12 L 330.15 668.75 L 334.27 670.12 L 335.65 674.25 L 334.23 678.79 L 330.15 680.25 L 326.06 678.79 L 324.65 674.25 M 330.15 664.25 L 331.65 665.25 L 330.15 666.75 L 329.15 665.25 L 330.15 664.25 M 324.65 665.75 L 324.65 668.75 L 322.83 669.75 L 321.65 668.75 L 321.65 665.75 L 322.83 664.75 L 324.65 665.75 M 324.65 683.25 L 322.83 684.25 L 321.65 683.25 L 321.65 680.25 L 322.83 679.25 L 324.65 680.25 L 324.65 683.25 M 330.15 684.75 L 329.15 683.75 L 330.15 682.25 L 331.65 683.75 L 330.15 684.75 M 336.15 683.25 L 335.15 681.43 L 336.15 680.25 L 337.33 679.25 L 339.15 680.25 L 339.15 683.25 L 336.15 683.25 Z" fill="#c6c6c6" fill-rule="nonzero" group-id="44" node-id="415" stroke-linecap="butt" stroke-width="10" target-height="29.5" target-width="30" target-x="315.1499" target-y="659.75"></path></g><g node-id="481"><path d="M 364.65 674.25 L 362.17 661.18 L 354.65 649.75 L 343.56 642.27 L 330.15 639.75 L 317.08 642.23 L 305.65 649.75 L 298.13 661.18 L 295.65 674.25 L 298.17 687.67 L 305.65 698.75 L 316.73 706.23 L 330.15 708.75 L 343.56 706.23 L 354.65 698.75 L 362.13 687.66 L 364.65 674.25 M 358.65 657.75 L 359.01 660.80 L 357.15 662.75 L 354.38 663.25 L 352.15 661.75 L 351.75 659.45 L 353.65 657.25 L 356.81 656.64 L 358.65 657.75 M 346.65 645.75 L 348.40 648.00 L 347.65 650.75 L 345.68 652.74 L 342.65 652.75 L 341.28 650.55 L 342.15 647.75 L 344.05 645.74 L 346.65 645.75 M 359.15 677.75 L 356.52 676.88 L 355.65 674.25 L 356.48 672.04 L 359.15 671.25 L 362.24 672.07 L 363.15 674.25 L 362.19 676.84 L 359.15 677.75 M 352.15 687.25 L 354.38 685.75 L 357.15 686.25 L 359.28 688.15 L 358.65 690.75 L 356.75 692.23 L 353.65 691.75 L 351.75 689.55 L 352.15 687.25 M 354.15 674.25 L 352.40 683.51 L 347.15 691.25 L 339.41 696.50 L 330.15 698.25 L 320.98 696.48 L 313.65 691.25 L 308.40 683.51 L 306.65 674.25 L 308.38 665.42 L 313.65 657.75 L 321.32 652.48 L 330.15 650.75 L 339.41 652.50 L 347.15 657.75 L 352.42 665.42 L 354.15 674.25 M 347.65 698.25 L 348.63 701.20 L 346.65 702.75 L 344.05 703.38 L 342.15 701.25 L 341.42 698.17 L 343.15 696.25 L 345.40 695.95 L 347.65 698.25 M 327.15 645.25 L 327.94 642.58 L 330.15 641.75 L 332.77 642.62 L 333.65 645.25 L 332.74 648.29 L 330.15 649.25 L 327.97 648.34 L 327.15 645.25 M 318.65 647.75 L 319.40 650.50 L 317.65 652.75 L 314.62 652.74 L 312.65 650.75 L 311.90 648.00 L 313.65 645.75 L 316.68 645.76 L 318.65 647.75 M 306.65 657.25 L 308.78 659.15 L 308.15 661.75 L 306.55 663.47 L 303.15 662.75 L 301.25 660.55 L 301.65 658.25 L 303.57 656.52 L 306.65 657.25 M 297.15 674.25 L 298.06 672.07 L 301.15 671.25 L 304.24 672.07 L 305.15 674.25 L 304.19 676.84 L 301.15 677.75 L 298.11 676.84 L 297.15 674.25 M 303.15 686.25 L 306.55 685.53 L 308.15 687.25 L 308.78 689.85 L 306.65 691.75 L 303.57 692.48 L 301.65 690.75 L 301.25 688.45 L 303.15 686.25 M 330.15 707.25 L 327.94 706.42 L 327.15 703.75 L 327.97 700.66 L 330.15 699.75 L 332.74 700.71 L 333.65 703.75 L 332.77 706.38 L 330.15 707.25 M 313.65 702.75 L 311.67 701.20 L 312.65 698.25 L 315.31 695.94 L 317.65 696.25 L 319.15 698.48 L 318.65 701.25 L 316.35 703.39 L 313.65 702.75 Z" fill="#dad1d1" fill-rule="nonzero" group-id="45" node-id="420" stroke-linecap="butt" stroke-width="10" target-height="69" target-width="69" target-x="295.6499" target-y="639.75"></path></g><g node-id="482"><path d="M 717.65 401.75 L 715.41 405.10 L 714.65 409.25 L 714.65 425.75 L 763.65 505.25 L 793.15 505.25 L 796.79 504.50 L 799.65 502.25 L 802.65 494.25 L 802.65 483.25 L 750.65 398.25 L 724.15 398.25 L 720.56 399.11 L 717.65 401.75 Z" fill="#ffffff" fill-opacity="0.49803922" fill-rule="nonzero" group-id="46" node-id="425" stroke-linecap="butt" stroke-width="10" target-height="107" target-width="88" target-x="714.65" target-y="398.25"></path></g><g node-id="483"><path d="M 757.65 398.25 L 802.65 472.25 L 802.65 444.25 L 774.65 398.25 L 757.65 398.25 Z" fill="#ffffff" fill-opacity="0.49803922" fill-rule="nonzero" group-id="47" node-id="430" stroke-linecap="butt" stroke-width="10" target-height="74" target-width="45" target-x="757.65" target-y="398.25"></path></g><path d="M 826.65 409.25 L 826.65 425.75 L 875.15 505.25 L 881.65 505.25 L 865.70 451.41 L 844.65 398.25 L 836.15 398.25 L 828.15 399.75 L 826.65 409.25 Z" fill="#ffffff" fill-opacity="0.49803922" fill-rule="nonzero" group-id="48" node-id="435" stroke-linecap="butt" stroke-width="10" target-height="107" target-width="55" target-x="826.65" target-y="398.25"></path></svg>