<svg t="1680433595902" class="icon" viewBox="0 0 1024 1024" version="1.1" xmlns="http://www.w3.org/2000/svg" p-id="30880" width="200" height="200"><path d="M214.118 765.747L13.21 306.79C4.403 281.702 0 256 0 229.478c0-63.18 22.426-117.248 67.277-162.201C112.23 22.426 166.297 0 229.478 0c50.074 0 95.642 14.746 136.91 44.134 8.806 8.807 9.522 16.896 2.252 24.27-5.94 10.342-14.029 11.878-24.371 4.402-33.792-24.985-72.09-37.478-114.79-37.478-54.477 0-100.455 18.74-137.933 56.32-37.479 37.478-56.32 83.558-56.32 137.933 0 20.685 3.686 41.881 11.059 64l183.193 421.478 48.538-112.537c5.94-11.776 14.029-14.746 24.371-8.91 8.807 4.506 11.776 12.596 8.807 24.27L244.94 765.747c-2.97 7.475-8.09 11.06-15.463 11.06-7.27 0-12.492-3.585-15.36-11.06z m-17.715-456.806h-6.656c-32.358-16.18-48.537-42.599-48.537-79.463 0-23.45 8.806-44.134 26.521-61.747s38.298-26.521 61.747-26.521c8.807 0 16.18 0.819 22.119 2.252 10.342 2.97 13.926 10.24 11.059 22.016-2.97 11.879-9.626 16.282-19.866 13.312-2.97-1.433-7.372-2.252-13.312-2.252-14.745 0-27.238 5.222-37.478 15.462-10.342 10.342-15.462 22.835-15.462 37.478 0 20.685 9.523 36.045 28.672 46.388 10.342 4.403 12.492 12.492 6.656 24.268-1.434 5.94-6.656 8.807-15.463 8.807z m300.135 633.446L273.613 452.403c-17.613-36.761-26.42-75.776-26.42-116.94 0-73.524 25.703-136.09 77.21-187.597C375.91 96.358 438.477 70.656 512 70.656c73.523 0 136.09 25.702 187.597 77.21 51.507 51.507 77.21 114.073 77.21 187.596 0 41.165-8.807 80.282-26.522 116.941L527.462 942.387c-2.97 7.373-8.09 10.957-15.462 10.957s-12.493-3.584-15.462-10.957zM282.522 335.462c0 35.328 8.09 69.223 24.268 101.479L512 893.747l205.21-456.806c16.179-32.359 24.268-66.253 24.268-101.479 0-63.18-22.425-117.248-67.276-162.201C629.35 128.41 575.283 105.88 512 105.88s-117.35 22.529-162.202 67.38c-44.85 44.851-67.276 98.918-67.276 162.201z m315.596 88.27c-23.552 23.551-52.326 35.327-86.118 35.327s-62.874-12.185-87.142-36.454c-24.27-24.269-36.455-53.248-36.455-87.143 0-33.792 12.186-62.873 36.455-87.142 24.268-24.371 53.35-36.454 87.142-36.454s62.874 12.185 87.142 36.454c24.27 24.269 36.455 53.35 36.455 87.142 0 33.895-12.493 63.284-37.479 88.27z m-24.37-150.12C556.133 256 535.551 247.195 512 247.195s-44.134 8.806-61.747 26.419-26.522 38.297-26.522 61.85c0 23.551 8.807 44.134 26.522 61.747S488.448 423.73 512 423.73s44.134-8.806 61.747-26.521 26.522-38.298 26.522-61.748c0-23.552-8.807-44.134-26.522-61.85z m205.311 492.135l-66.253-147.865c-5.836-10.24-2.97-18.432 8.807-24.27 10.342-5.836 18.432-2.969 24.269 8.807l48.537 112.538 183.194-421.479c7.373-22.118 11.059-43.315 11.059-64 0-54.374-18.74-100.454-56.32-137.932-37.478-37.479-83.456-56.32-137.933-56.32-42.7 0-80.896 12.492-114.79 37.478-10.343 7.373-18.432 5.837-24.269-4.403-7.27-7.27-6.554-15.36 2.253-24.167C698.88 14.746 744.448 0 794.522 0c63.283 0 117.35 22.426 162.201 67.277 44.851 44.953 67.277 99.02 67.277 162.201 0 26.522-4.403 52.224-13.21 77.21l-200.806 459.06c-2.97 7.474-8.192 11.058-15.462 11.058s-12.493-3.584-15.463-11.059z m48.538-456.806c-8.807 0-14.029-2.97-15.463-8.807-5.836-11.776-3.686-19.865 6.656-24.268 19.15-10.24 28.672-25.703 28.672-46.388 0-14.643-5.12-27.238-15.462-37.478-10.342-10.24-22.835-15.462-37.478-15.462-5.837 0-10.343 0.819-13.21 2.252-10.342 2.97-16.998-1.433-19.968-13.312-2.867-11.776 0.82-19.046 11.06-22.016 5.836-1.433 13.209-2.252 22.118-2.252 23.552 0 44.134 8.806 61.747 26.521s26.521 38.298 26.521 61.747c0 36.762-16.179 63.284-48.537 79.463h-6.656z" fill="#799af4" p-id="30881"></path></svg>