<svg t="1680433736943" class="icon" viewBox="0 0 1024 1024" version="1.1" xmlns="http://www.w3.org/2000/svg" p-id="42820" width="200" height="200"><path d="M337.77 505.898l94.87 54.7-145.115 251.678-94.869-54.7z" fill="#1DCA5D" p-id="42821"></path><path d="M290.41 823.21l-133-76.69 190.26-329.93 133 76.69-190.26 329.93z m-111.14-82.56l105.28 60.71 174.27-302.21-105.28-60.71-174.27 302.21z" fill="" p-id="42822"></path><path d="M576.06 623.12l-67.43-83.07 70.78-57.45 152.42 187.79-70.78 57.45-40.19-49.51" fill="#FFD632" p-id="42823"></path><path d="M648.95 791.78c-2.33 0-4.63-1.01-6.22-2.96l-60.63-74.7c-2.79-3.43-2.26-8.47 1.17-11.25 3.43-2.78 8.47-2.26 11.25 1.17l55.59 68.49 94.36-76.58-219.85-270.87-94.36 76.58 126.67 159.11c2.78 3.43 2.26 8.47-1.17 11.25-3.43 2.78-8.47 2.26-11.25-1.17L412.8 505.53c-1.34-1.65-1.96-3.76-1.75-5.87s1.27-4.05 2.92-5.38l106.78-86.67c3.43-2.78 8.47-2.26 11.25 1.17l229.93 283.29c2.78 3.43 2.26 8.47-1.17 11.25l-106.78 86.67a7.91 7.91 0 0 1-5.03 1.79z" fill="" p-id="42824"></path><path d="M791.969 317.4l102.076 10.341-33.943 335.023-102.077-10.342z" fill="#1DCA5D" p-id="42825"></path><path d="M863.04 727.09L710.3 711.62l47.09-464.98 152.74 15.47-47.09 464.98z m-135.21-29.77l120.91 12.25 43.87-433.14-120.91-12.25-43.87 433.14z" fill="" p-id="42826"></path><path d="M194.62 859.57m-156.43 0a156.43 156.43 0 1 0 312.86 0 156.43 156.43 0 1 0-312.86 0Z" fill="#FFD632" p-id="42827"></path><path d="M312.08 756.27c11.26 21.6 17.63 46.16 17.63 72.2 0 86.39-70.04 156.43-156.43 156.43-46.8 0-88.79-20.56-117.46-53.13 26.09 50.05 78.45 84.23 138.79 84.23 86.39 0 156.43-70.04 156.43-156.43 0.01-39.59-14.71-75.74-38.96-103.3z" fill="#FDA738" p-id="42828"></path><path d="M172.61 956.51c-6.27-0.18-12.54-0.86-18.66-2.03l1.87-9.82c5.6 1.07 11.34 1.69 17.08 1.86l-0.29 9.99z m18.74-0.94l-1.29-9.92c5.68-0.74 11.33-1.94 16.79-3.58l2.86 9.58c-5.97 1.8-12.15 3.11-18.36 3.92z m-55.5-6.08a117.03 117.03 0 0 1-17.08-7.83l4.88-8.73c4.99 2.8 10.25 5.21 15.62 7.16l-3.42 9.4z m91.37-4.64l-4.36-9a107.64 107.64 0 0 0 14.8-8.7l5.74 8.19c-5.12 3.59-10.56 6.79-16.18 9.51z m-124.05-13.64a118.73 118.73 0 0 1-13.74-12.79l7.37-6.75c3.86 4.22 8.1 8.16 12.58 11.71l-6.21 7.83z m154.7-7.83l-6.97-7.17c4.11-3.99 7.92-8.33 11.34-12.91l8.02 5.98c-3.74 4.99-7.91 9.74-12.39 14.1zM77.89 903.61c-3.44-5.23-6.48-10.76-9.03-16.45l9.12-4.09c2.33 5.2 5.11 10.27 8.26 15.05l-8.35 5.49z m202.35-10.24l-8.87-4.63c2.65-5.07 4.9-10.4 6.7-15.82l9.49 3.14c-1.96 5.94-4.42 11.76-7.32 17.31z m-217.67-23.9c-1.61-6.02-2.74-12.24-3.37-18.47l9.95-1c0.57 5.7 1.61 11.39 3.08 16.89l-9.66 2.58z m229.45-11.65l-9.88-1.58c0.9-5.62 1.36-11.38 1.36-17.13h10c0 6.27-0.5 12.57-1.48 18.71z m-8.61-23.3c-0.24-5.73-0.94-11.47-2.08-17.05l9.8-2c1.25 6.1 2.01 12.37 2.28 18.63l-10 0.42z m-214.62-1.71l-9.98-0.58c0.36-6.25 1.23-12.51 2.57-18.59l9.76 2.16c-1.23 5.57-2.02 11.29-2.35 17.01z m207.75-31.83c-2.03-5.34-4.5-10.55-7.36-15.5l8.66-5a117.3 117.3 0 0 1 8.05 16.95l-9.35 3.55z m-200.35-1.6l-9.29-3.7c2.31-5.8 5.11-11.47 8.33-16.84l8.58 5.14c-2.94 4.91-5.5 10.09-7.62 15.4z m183.24-28.04c-3.61-4.43-7.6-8.61-11.87-12.42l6.66-7.46c4.66 4.16 9.03 8.73 12.97 13.57l-7.76 6.31z m-165.64-1.35l-7.65-6.44c4.02-4.78 8.46-9.27 13.19-13.36l6.54 7.57c-4.34 3.74-8.4 7.86-12.08 12.23z m140.08-21.46c-4.82-3.09-9.93-5.8-15.17-8.07l3.97-9.18c5.73 2.48 11.31 5.45 16.58 8.82l-5.38 8.43z m-114.16-0.93l-5.25-8.51c5.32-3.28 10.94-6.16 16.71-8.55l3.82 9.24c-5.27 2.19-10.41 4.82-15.28 7.82z m82.73-12.67a106.32 106.32 0 0 0-16.93-2.85l0.87-9.96c6.24 0.54 12.47 1.59 18.51 3.12l-2.45 9.69z m-51.1-0.41l-2.29-9.73c6.07-1.43 12.31-2.38 18.56-2.82l0.71 9.97c-5.72 0.41-11.43 1.28-16.98 2.58z" fill="#FFFFFF" p-id="42829"></path><path d="M18.28 785.42c6.74-18.4 16.55-35.33 28.79-50.16" fill="#FFD632" p-id="42830"></path><path d="M18.28 793.42c-0.91 0-1.84-0.16-2.75-0.49a7.994 7.994 0 0 1-4.76-10.26c6.99-19.09 17.13-36.75 30.14-52.5a7.987 7.987 0 0 1 11.26-1.07c3.41 2.81 3.89 7.86 1.07 11.26-11.85 14.35-21.08 30.43-27.45 47.82a7.996 7.996 0 0 1-7.51 5.24z" fill="" p-id="42831"></path><path d="M8.59 828.48c0.6-6.54 1.57-12.96 2.89-19.27" fill="#FFD632" p-id="42832"></path><path d="M8.6 836.48c-0.25 0-0.49-0.01-0.74-0.03-4.4-0.41-7.64-4.3-7.23-8.7 0.62-6.76 1.64-13.54 3.02-20.17 0.9-4.32 5.14-7.1 9.47-6.2 4.33 0.9 7.1 5.14 6.2 9.47-1.26 6.03-2.19 12.21-2.75 18.37-0.4 4.14-3.88 7.26-7.97 7.26z" fill="" p-id="42833"></path><path d="M179.42 1024c-46.67 0-90.89-17.82-124.5-50.17C21.4 941.57 1.9 898.25 0.02 851.85a8.002 8.002 0 0 1 7.67-8.32c4.41-0.2 8.14 3.25 8.32 7.67 3.57 87.93 75.35 156.8 163.42 156.8 90.19 0 163.56-73.37 163.56-163.56S269.6 680.88 179.42 680.88c-25.45 0-49.83 5.68-72.46 16.89a8 8 0 0 1-7.1-14.34c24.86-12.31 51.63-18.55 79.56-18.55 99.01 0 179.56 80.55 179.56 179.56S278.43 1024 179.42 1024z" fill="" p-id="42834"></path><path d="M181.57 855.24m-52.69 0a52.69 52.69 0 1 0 105.38 0 52.69 52.69 0 1 0-105.38 0Z" fill="#1DCA5D" p-id="42835"></path><path d="M124.67 804.27c7.9-10.77 18.91-19.12 31.69-23.75" fill="#1DCA5D" p-id="42836"></path><path d="M124.66 812.27c-1.64 0-3.3-0.5-4.73-1.55-3.56-2.61-4.33-7.62-1.72-11.18 8.97-12.22 21.22-21.4 35.42-26.54 4.16-1.51 8.74 0.65 10.24 4.8 1.5 4.15-0.65 8.74-4.8 10.24-11.21 4.06-20.88 11.3-27.97 20.96-1.55 2.14-3.98 3.27-6.44 3.27z" fill="" p-id="42837"></path><path d="M179.49 920.39c-41.88 0-75.95-34.07-75.95-75.95 0-4.97 0.48-9.94 1.44-14.78a7.997 7.997 0 0 1 9.4-6.3c4.33 0.86 7.16 5.06 6.3 9.4a60.8 60.8 0 0 0-1.14 11.69c0 33.06 26.89 59.95 59.95 59.95s59.95-26.89 59.95-59.95c0-30.22-22.57-55.79-52.51-59.5-4.38-0.54-7.5-4.54-6.96-8.92 0.54-4.39 4.53-7.5 8.92-6.96 37.94 4.69 66.55 37.1 66.55 75.38 0 41.87-34.07 75.94-75.95 75.94z" fill="" p-id="42838"></path><path d="M444.61 417.07m-156.43 0a156.43 156.43 0 1 0 312.86 0 156.43 156.43 0 1 0-312.86 0Z" fill="#FFD632" p-id="42839"></path><path d="M562.07 313.77c11.26 21.6 17.63 46.16 17.63 72.2 0 86.39-70.04 156.43-156.43 156.43-46.8 0-88.79-20.56-117.46-53.13 26.09 50.05 78.45 84.23 138.79 84.23 86.39 0 156.43-70.04 156.43-156.43 0.01-39.59-14.7-75.74-38.96-103.3z" fill="#FDA738" p-id="42840"></path><path d="M422.61 514.01c-6.27-0.18-12.54-0.86-18.66-2.03l1.87-9.82c5.6 1.07 11.34 1.69 17.08 1.86l-0.29 9.99z m18.74-0.94l-1.29-9.92c5.68-0.74 11.33-1.94 16.79-3.58l2.86 9.58c-5.97 1.8-12.15 3.11-18.36 3.92z m-55.51-6.08a117.03 117.03 0 0 1-17.08-7.83l4.88-8.73c4.99 2.8 10.25 5.21 15.62 7.16l-3.42 9.4z m91.38-4.64l-4.36-9a107.64 107.64 0 0 0 14.8-8.7l5.74 8.19c-5.12 3.59-10.57 6.79-16.18 9.51z m-124.06-13.64a118.73 118.73 0 0 1-13.74-12.79l7.37-6.75c3.87 4.22 8.1 8.16 12.58 11.71l-6.21 7.83z m154.7-7.83l-6.97-7.17c4.11-3.99 7.92-8.33 11.34-12.91l8.02 5.98c-3.74 4.99-7.9 9.74-12.39 14.1z m-179.97-19.77c-3.44-5.23-6.48-10.76-9.03-16.45l9.12-4.09c2.33 5.2 5.11 10.27 8.26 15.05l-8.35 5.49z m202.35-10.24l-8.87-4.63c2.65-5.07 4.9-10.4 6.7-15.82l9.49 3.14a116.94 116.94 0 0 1-7.32 17.31z m-217.68-23.91c-1.61-6.02-2.74-12.24-3.37-18.47l9.95-1c0.57 5.7 1.61 11.39 3.08 16.89l-9.66 2.58z m229.45-11.64l-9.88-1.58c0.9-5.62 1.36-11.38 1.36-17.13h10c0.01 6.27-0.49 12.57-1.48 18.71z m-8.61-23.3c-0.24-5.73-0.94-11.47-2.08-17.05l9.8-2c1.25 6.1 2.01 12.37 2.28 18.63l-10 0.42z m-214.62-1.71l-9.98-0.58c0.36-6.25 1.23-12.51 2.57-18.59l9.76 2.16c-1.22 5.57-2.01 11.29-2.35 17.01z m207.75-31.83c-2.03-5.34-4.5-10.55-7.36-15.5l8.66-5a117.3 117.3 0 0 1 8.05 16.95l-9.35 3.55z m-200.34-1.6l-9.29-3.7c2.31-5.8 5.11-11.47 8.33-16.84l8.58 5.14c-2.94 4.91-5.51 10.09-7.62 15.4z m183.24-28.04c-3.61-4.43-7.6-8.61-11.87-12.42l6.66-7.46c4.66 4.16 9.03 8.73 12.97 13.57l-7.76 6.31z m-165.64-1.35l-7.65-6.44c4.02-4.78 8.46-9.27 13.19-13.36l6.54 7.57c-4.34 3.74-8.4 7.86-12.08 12.23z m140.08-21.46c-4.82-3.09-9.93-5.8-15.17-8.07l3.97-9.18c5.73 2.48 11.31 5.45 16.58 8.82l-5.38 8.43z m-114.16-0.92l-5.25-8.51c5.32-3.28 10.94-6.16 16.71-8.54l3.82 9.24a105.72 105.72 0 0 0-15.28 7.81z m82.72-12.68a106.32 106.32 0 0 0-16.93-2.85l0.87-9.96c6.24 0.54 12.47 1.59 18.51 3.12l-2.45 9.69z m-51.1-0.41l-2.29-9.73c6.07-1.43 12.31-2.38 18.56-2.82l0.71 9.97c-5.71 0.41-11.43 1.28-16.98 2.58z" fill="#FFFFFF" p-id="42841"></path><path d="M268.27 342.92c6.74-18.4 16.55-35.33 28.79-50.16" fill="#FFD632" p-id="42842"></path><path d="M268.27 350.92c-0.91 0-1.84-0.16-2.75-0.49-4.15-1.52-6.28-6.12-4.76-10.26 7-19.09 17.13-36.76 30.14-52.5a7.987 7.987 0 0 1 11.26-1.07c3.41 2.81 3.89 7.86 1.07 11.26a162.778 162.778 0 0 0-27.45 47.82c-1.18 3.24-4.25 5.24-7.51 5.24z" fill="" p-id="42843"></path><path d="M258.58 385.98c0.6-6.54 1.57-12.96 2.89-19.27" fill="#FFD632" p-id="42844"></path><path d="M258.59 393.98c-0.25 0-0.5-0.01-0.75-0.03-4.4-0.41-7.64-4.3-7.23-8.7 0.62-6.76 1.64-13.54 3.02-20.17 0.9-4.33 5.14-7.1 9.47-6.2 4.33 0.9 7.1 5.14 6.2 9.47-1.26 6.03-2.18 12.21-2.75 18.37-0.38 4.14-3.87 7.26-7.96 7.26z" fill="" p-id="42845"></path><path d="M429.41 581.5c-46.67 0-90.89-17.82-124.5-50.17-33.52-32.26-53.02-75.58-54.9-121.98a8.002 8.002 0 0 1 7.67-8.32c4.41-0.2 8.14 3.25 8.32 7.67 3.57 87.93 75.35 156.8 163.42 156.8 90.19 0 163.56-73.37 163.56-163.56S519.6 238.38 429.41 238.38c-25.45 0-49.83 5.68-72.46 16.89a8 8 0 0 1-7.1-14.34c24.86-12.31 51.63-18.55 79.56-18.55 99.01 0 179.56 80.55 179.56 179.56S528.42 581.5 429.41 581.5z" fill="" p-id="42846"></path><path d="M431.57 412.74m-52.69 0a52.69 52.69 0 1 0 105.38 0 52.69 52.69 0 1 0-105.38 0Z" fill="#1DCA5D" p-id="42847"></path><path d="M374.67 361.77c7.9-10.77 18.91-19.12 31.69-23.75" fill="#1DCA5D" p-id="42848"></path><path d="M374.66 369.77c-1.64 0-3.3-0.5-4.73-1.55-3.56-2.61-4.33-7.62-1.72-11.18 8.97-12.22 21.22-21.4 35.42-26.54 4.15-1.5 8.74 0.65 10.24 4.8 1.5 4.15-0.65 8.74-4.8 10.24-11.21 4.06-20.88 11.3-27.97 20.96-1.55 2.14-3.98 3.27-6.44 3.27z" fill="" p-id="42849"></path><path d="M429.48 477.89c-41.88 0-75.95-34.07-75.95-75.95 0-4.97 0.48-9.94 1.44-14.78a7.997 7.997 0 0 1 9.4-6.3c4.33 0.86 7.16 5.06 6.3 9.4a60.8 60.8 0 0 0-1.14 11.69c0 33.06 26.89 59.95 59.95 59.95s59.95-26.89 59.95-59.95c0-30.22-22.57-55.79-52.51-59.5-4.38-0.54-7.5-4.54-6.96-8.92 0.54-4.39 4.53-7.5 8.92-6.96 37.94 4.69 66.55 37.1 66.55 75.38 0.01 41.87-34.07 75.94-75.95 75.94z" fill="" p-id="42850"></path><path d="M859.64 194.69m-156.43 0a156.43 156.43 0 1 0 312.86 0 156.43 156.43 0 1 0-312.86 0Z" fill="#FFD632" p-id="42851"></path><path d="M977.1 91.39c11.26 21.6 17.63 46.16 17.63 72.2 0 86.39-70.04 156.43-156.43 156.43-46.8 0-88.79-20.56-117.46-53.13 26.09 50.05 78.45 84.23 138.79 84.23 86.39 0 156.43-70.04 156.43-156.43 0.01-39.59-14.7-75.74-38.96-103.3z" fill="#FDA738" p-id="42852"></path><path d="M837.64 291.63c-6.27-0.18-12.54-0.86-18.66-2.03l1.87-9.82c5.6 1.07 11.34 1.69 17.08 1.86l-0.29 9.99z m18.74-0.94l-1.29-9.92c5.68-0.74 11.33-1.94 16.79-3.58l2.86 9.58c-5.97 1.8-12.15 3.11-18.36 3.92z m-55.51-6.08a117.03 117.03 0 0 1-17.08-7.83l4.88-8.73c4.99 2.8 10.25 5.21 15.62 7.16l-3.42 9.4z m91.38-4.64l-4.36-9a107.64 107.64 0 0 0 14.8-8.7l5.74 8.19c-5.12 3.59-10.57 6.79-16.18 9.51z m-124.06-13.64a118.73 118.73 0 0 1-13.74-12.79l7.37-6.75c3.87 4.22 8.1 8.16 12.58 11.71l-6.21 7.83z m154.7-7.83l-6.97-7.17c4.11-3.99 7.92-8.33 11.34-12.91l8.02 5.98c-3.74 4.99-7.9 9.74-12.39 14.1z m-179.97-19.77c-3.44-5.23-6.48-10.76-9.03-16.45l9.12-4.09c2.33 5.2 5.11 10.27 8.26 15.05l-8.35 5.49z m202.35-10.24l-8.87-4.63c2.65-5.07 4.9-10.4 6.7-15.82l9.49 3.14a116.94 116.94 0 0 1-7.32 17.31zM727.6 204.58c-1.61-6.02-2.74-12.24-3.37-18.47l9.95-1c0.57 5.7 1.61 11.39 3.08 16.89l-9.66 2.58z m229.44-11.64l-9.88-1.58c0.9-5.62 1.36-11.38 1.36-17.13h10c0 6.27-0.49 12.57-1.48 18.71z m-8.61-23.3c-0.24-5.73-0.94-11.47-2.08-17.05l9.8-2c1.25 6.1 2.01 12.37 2.28 18.63l-10 0.42z m-214.62-1.71l-9.98-0.58c0.36-6.25 1.23-12.51 2.57-18.59l9.76 2.16c-1.22 5.57-2.01 11.29-2.35 17.01z m207.75-31.83c-2.03-5.34-4.5-10.55-7.36-15.5l8.66-5a117.3 117.3 0 0 1 8.05 16.95l-9.35 3.55z m-200.34-1.6l-9.29-3.7c2.31-5.8 5.11-11.47 8.33-16.84l8.58 5.14c-2.94 4.91-5.51 10.09-7.62 15.4z m183.24-28.04c-3.61-4.43-7.6-8.61-11.87-12.42l6.66-7.46c4.66 4.16 9.03 8.73 12.97 13.57l-7.76 6.31z m-165.64-1.35l-7.65-6.44c4.02-4.78 8.46-9.27 13.19-13.36l6.54 7.57c-4.34 3.74-8.4 7.85-12.08 12.23z m140.07-21.46c-4.82-3.09-9.93-5.8-15.17-8.07l3.97-9.18c5.73 2.48 11.31 5.45 16.58 8.82l-5.38 8.43z m-114.15-0.93l-5.25-8.51c5.32-3.28 10.94-6.16 16.71-8.55l3.82 9.24a108.35 108.35 0 0 0-15.28 7.82z m82.72-12.67a106.32 106.32 0 0 0-16.93-2.85l0.87-9.96c6.24 0.54 12.47 1.59 18.51 3.12l-2.45 9.69z m-51.1-0.41l-2.29-9.73c6.07-1.43 12.31-2.38 18.56-2.82l0.71 9.97c-5.71 0.41-11.43 1.27-16.98 2.58z" fill="#FFFFFF" p-id="42853"></path><path d="M683.3 120.54c6.74-18.4 16.55-35.33 28.79-50.16" fill="#FFD632" p-id="42854"></path><path d="M683.3 128.54c-0.91 0-1.84-0.16-2.75-0.49a7.994 7.994 0 0 1-4.76-10.26c6.99-19.09 17.13-36.75 30.14-52.5a7.987 7.987 0 0 1 11.26-1.07c3.41 2.81 3.89 7.86 1.07 11.26-11.85 14.35-21.08 30.43-27.45 47.82-1.18 3.23-4.25 5.24-7.51 5.24z" fill="" p-id="42855"></path><path d="M673.61 163.6c0.6-6.54 1.57-12.96 2.89-19.27" fill="#FFD632" p-id="42856"></path><path d="M673.62 171.6c-0.25 0-0.5-0.01-0.75-0.03-4.4-0.41-7.64-4.3-7.23-8.7 0.62-6.77 1.64-13.55 3.02-20.17 0.9-4.32 5.14-7.1 9.47-6.2 4.33 0.9 7.1 5.14 6.2 9.47-1.26 6.02-2.18 12.2-2.75 18.37-0.38 4.14-3.87 7.26-7.96 7.26z" fill="" p-id="42857"></path><path d="M844.44 359.12c-46.67 0-90.89-17.82-124.5-50.17-33.52-32.26-53.02-75.58-54.9-121.98a8.002 8.002 0 0 1 7.67-8.32c4.41-0.2 8.14 3.25 8.32 7.67 3.57 87.93 75.35 156.8 163.42 156.8 90.19 0 163.56-73.37 163.56-163.56S934.63 16 844.44 16c-25.45 0-49.83 5.68-72.46 16.89a8 8 0 0 1-7.1-14.34C789.74 6.24 816.51 0 844.44 0 943.45 0 1024 80.55 1024 179.56s-80.55 179.56-179.56 179.56z" fill="" p-id="42858"></path><path d="M846.6 190.36m-52.69 0a52.69 52.69 0 1 0 105.38 0 52.69 52.69 0 1 0-105.38 0Z" fill="#1DCA5D" p-id="42859"></path><path d="M789.7 139.39c7.9-10.77 18.91-19.12 31.69-23.75" fill="#1DCA5D" p-id="42860"></path><path d="M789.69 147.39c-1.64 0-3.3-0.5-4.73-1.55-3.56-2.61-4.33-7.62-1.72-11.18 8.97-12.22 21.22-21.4 35.42-26.54 4.16-1.5 8.74 0.65 10.24 4.8 1.5 4.15-0.65 8.74-4.8 10.24-11.21 4.06-20.88 11.3-27.97 20.96-1.55 2.14-3.98 3.27-6.44 3.27z" fill="" p-id="42861"></path><path d="M844.51 255.51c-41.88 0-75.95-34.07-75.95-75.95 0-4.97 0.48-9.94 1.44-14.78a7.997 7.997 0 0 1 9.4-6.3c4.33 0.86 7.16 5.06 6.3 9.4a60.8 60.8 0 0 0-1.14 11.69c0 33.06 26.89 59.95 59.95 59.95s59.95-26.89 59.95-59.95c0-30.22-22.57-55.79-52.51-59.5-4.38-0.54-7.5-4.54-6.96-8.92 0.54-4.39 4.53-7.5 8.92-6.96 37.94 4.69 66.55 37.1 66.55 75.38 0.01 41.87-34.07 75.94-75.95 75.94z" fill="" p-id="42862"></path><path d="M757.08 729.54m-156.43 0a156.43 156.43 0 1 0 312.86 0 156.43 156.43 0 1 0-312.86 0Z" fill="#FFD632" p-id="42863"></path><path d="M874.55 626.24c11.26 21.6 17.63 46.16 17.63 72.2 0 86.39-70.04 156.43-156.43 156.43-46.8 0-88.79-20.56-117.46-53.13 26.09 50.05 78.45 84.23 138.79 84.23 86.39 0 156.43-70.04 156.43-156.43 0-39.59-14.71-75.74-38.96-103.3z" fill="#FDA738" p-id="42864"></path><path d="M735.08 826.48c-6.27-0.18-12.54-0.86-18.66-2.03l1.87-9.82c5.6 1.07 11.34 1.69 17.08 1.86l-0.29 9.99z m18.74-0.94l-1.29-9.92c5.68-0.74 11.33-1.94 16.79-3.58l2.86 9.58c-5.97 1.8-12.15 3.11-18.36 3.92z m-55.51-6.08a117.03 117.03 0 0 1-17.08-7.83l4.88-8.73c4.99 2.8 10.25 5.21 15.62 7.16l-3.42 9.4z m91.38-4.64l-4.36-9a107.64 107.64 0 0 0 14.8-8.7l5.74 8.19c-5.12 3.59-10.57 6.79-16.18 9.51z m-124.06-13.64a118.73 118.73 0 0 1-13.74-12.79l7.37-6.75c3.87 4.22 8.1 8.16 12.58 11.71l-6.21 7.83z m154.7-7.83l-6.97-7.17c4.11-3.99 7.92-8.33 11.34-12.91l8.02 5.98c-3.74 4.99-7.9 9.74-12.39 14.1z m-179.97-19.77c-3.44-5.23-6.48-10.76-9.03-16.45l9.12-4.09c2.33 5.2 5.11 10.27 8.26 15.05l-8.35 5.49z m202.35-10.24l-8.87-4.63c2.65-5.07 4.9-10.4 6.7-15.82l9.49 3.14a116.94 116.94 0 0 1-7.32 17.31z m-217.67-23.9c-1.61-6.02-2.74-12.24-3.37-18.47l9.95-1c0.57 5.7 1.61 11.39 3.08 16.89l-9.66 2.58z m229.44-11.65l-9.88-1.58c0.9-5.62 1.36-11.38 1.36-17.13h10c0.01 6.27-0.49 12.57-1.48 18.71z m-8.61-23.3c-0.24-5.73-0.94-11.47-2.08-17.05l9.8-2c1.25 6.1 2.01 12.37 2.28 18.63l-10 0.42z m-214.61-1.71l-9.98-0.58c0.36-6.25 1.23-12.51 2.57-18.59l9.76 2.16c-1.23 5.57-2.02 11.29-2.35 17.01z m207.75-31.83c-2.03-5.34-4.5-10.55-7.36-15.5l8.66-5a117.3 117.3 0 0 1 8.05 16.95l-9.35 3.55z m-200.35-1.6l-9.29-3.7c2.31-5.8 5.11-11.47 8.33-16.84l8.58 5.14c-2.94 4.91-5.51 10.09-7.62 15.4z m183.24-28.04c-3.61-4.43-7.6-8.61-11.87-12.42l6.66-7.46c4.66 4.16 9.03 8.73 12.97 13.57l-7.76 6.31z m-165.64-1.35l-7.65-6.44c4.02-4.78 8.46-9.27 13.19-13.36l6.54 7.57c-4.34 3.74-8.4 7.86-12.08 12.23z m140.08-21.46c-4.82-3.09-9.93-5.8-15.17-8.07l3.97-9.18c5.73 2.48 11.31 5.45 16.58 8.82l-5.38 8.43z m-114.16-0.93l-5.25-8.51c5.32-3.28 10.94-6.16 16.71-8.55l3.82 9.24c-5.27 2.19-10.41 4.82-15.28 7.82z m82.72-12.67a106.32 106.32 0 0 0-16.93-2.85l0.87-9.96c6.24 0.54 12.47 1.59 18.51 3.12l-2.45 9.69z m-51.09-0.41l-2.29-9.73c6.07-1.43 12.31-2.38 18.56-2.82l0.71 9.97c-5.72 0.41-11.44 1.28-16.98 2.58z" fill="#FFFFFF" p-id="42865"></path><path d="M580.74 655.39c6.74-18.4 16.55-35.33 28.79-50.16" fill="#FFD632" p-id="42866"></path><path d="M580.74 663.39c-0.91 0-1.84-0.16-2.75-0.49a7.994 7.994 0 0 1-4.76-10.26c6.99-19.09 17.13-36.75 30.14-52.5a7.987 7.987 0 0 1 11.26-1.07c3.41 2.81 3.89 7.86 1.07 11.26a162.778 162.778 0 0 0-27.45 47.82c-1.18 3.24-4.25 5.24-7.51 5.24z" fill="" p-id="42867"></path><path d="M571.06 698.45c0.6-6.54 1.57-12.96 2.89-19.27" fill="#FFD632" p-id="42868"></path><path d="M571.06 706.45c-0.25 0-0.5-0.01-0.75-0.03-4.4-0.41-7.64-4.3-7.23-8.7 0.62-6.76 1.64-13.55 3.02-20.17 0.9-4.33 5.14-7.1 9.47-6.2 4.33 0.9 7.1 5.14 6.2 9.47-1.26 6.02-2.18 12.2-2.75 18.37-0.38 4.14-3.87 7.26-7.96 7.26z" fill="" p-id="42869"></path><path d="M741.88 893.97c-46.67 0-90.89-17.82-124.5-50.17-33.52-32.26-53.02-75.58-54.9-121.98a8.002 8.002 0 0 1 7.67-8.32c4.41-0.2 8.14 3.25 8.32 7.67 3.57 87.93 75.35 156.8 163.42 156.8 90.19 0 163.56-73.37 163.56-163.56s-73.37-163.56-163.56-163.56c-25.45 0-49.83 5.68-72.46 16.89a8 8 0 0 1-7.1-14.34c24.86-12.31 51.63-18.55 79.56-18.55 99.01 0 179.56 80.55 179.56 179.56s-80.56 179.56-179.57 179.56z" fill="" p-id="42870"></path><path d="M744.04 725.21m-52.69 0a52.69 52.69 0 1 0 105.38 0 52.69 52.69 0 1 0-105.38 0Z" fill="#1DCA5D" p-id="42871"></path><path d="M687.14 674.24c7.9-10.77 18.91-19.12 31.69-23.75" fill="#1DCA5D" p-id="42872"></path><path d="M687.13 682.25c-1.64 0-3.3-0.5-4.73-1.55-3.56-2.61-4.33-7.62-1.72-11.18 8.97-12.23 21.22-21.4 35.42-26.54 4.15-1.5 8.74 0.65 10.24 4.8 1.5 4.15-0.65 8.74-4.8 10.24-11.21 4.05-20.88 11.3-27.97 20.96a7.955 7.955 0 0 1-6.44 3.27z" fill="" p-id="42873"></path><path d="M741.95 790.36c-41.88 0-75.95-34.07-75.95-75.95 0-4.97 0.48-9.94 1.44-14.78a7.997 7.997 0 0 1 9.4-6.3c4.33 0.86 7.16 5.06 6.3 9.4a60.8 60.8 0 0 0-1.14 11.69c0 33.06 26.89 59.95 59.95 59.95s59.95-26.89 59.95-59.95c0-30.22-22.57-55.79-52.51-59.5-4.38-0.54-7.5-4.54-6.96-8.92 0.54-4.39 4.53-7.5 8.92-6.96 37.94 4.69 66.55 37.1 66.55 75.38 0.01 41.87-34.07 75.94-75.95 75.94z" fill="" p-id="42874"></path><path d="M527.27 594.63c-3.59 2.55-8.61 1.7-11.16-1.89L509.9 584c-2.55-3.59-1.7-8.61 1.89-11.16 3.59-2.55 8.61-1.7 11.16 1.89l6.21 8.74c2.54 3.59 1.69 8.61-1.89 11.16z" fill="" p-id="42875"></path><path d="M564.24 638.65c-3.48 2.7-8.53 2.05-11.22-1.42l-21.31-27.49c-2.7-3.48-2.05-8.53 1.42-11.22 3.48-2.7 8.53-2.05 11.22 1.42l21.31 27.49c2.7 3.48 2.06 8.53-1.42 11.22z" fill="" p-id="42876"></path></svg>