<svg height="136" legacy-metrics="false" node-id="1" sillyvg="true" template-height="136" template-width="136" version="1.1" viewBox="0 0 136 136" width="136" xmlns="http://www.w3.org/2000/svg" xmlns:xlink="http://www.w3.org/1999/xlink"><defs node-id="24"></defs><g node-id="26"><g node-id="27"><path d="M 136.00 68.00 L 135.76 73.65 L 135.10 79.10 L 134.02 84.37 L 132.53 89.49 L 130.64 94.50 L 128.40 99.27 L 125.81 103.82 L 122.88 108.16 L 119.62 112.27 L 116.08 116.08 L 112.27 119.62 L 108.16 122.88 L 103.82 125.81 L 99.27 128.40 L 94.50 130.64 L 89.49 132.53 L 84.37 134.02 L 79.10 135.10 L 73.65 135.76 L 68.00 136.00 L 62.35 135.76 L 56.90 135.10 L 51.63 134.02 L 46.51 132.53 L 41.50 130.64 L 36.73 128.40 L 32.18 125.81 L 27.84 122.88 L 23.73 119.62 L 19.92 116.08 L 16.38 112.27 L 13.12 108.16 L 10.19 103.82 L 7.60 99.27 L 5.36 94.50 L 3.47 89.49 L 1.98 84.37 L 0.90 79.10 L 0.24 73.65 L 0.00 68.00 L 0.24 62.35 L 0.90 56.90 L 1.98 51.63 L 3.47 46.51 L 5.36 41.50 L 7.60 36.73 L 10.19 32.18 L 13.12 27.84 L 16.38 23.73 L 19.92 19.92 L 23.73 16.38 L 27.84 13.12 L 32.18 10.19 L 36.73 7.60 L 41.50 5.36 L 46.51 3.47 L 51.63 1.98 L 56.90 0.90 L 62.35 0.24 L 68.00 0.00 L 73.65 0.24 L 79.10 0.90 L 84.37 1.98 L 89.49 3.47 L 94.50 5.36 L 99.27 7.60 L 103.82 10.19 L 108.16 13.12 L 112.27 16.38 L 116.08 19.92 L 119.62 23.73 L 122.88 27.84 L 125.81 32.18 L 128.40 36.73 L 130.64 41.50 L 132.53 46.51 L 134.02 51.63 L 135.10 56.90 L 135.76 62.35 L 136.00 68.00 Z" fill="#e1e8fa" fill-rule="evenodd" group-id="1,2" id="Oval" node-id="7" stroke-linecap="butt" stroke-width="1" target-height="136" target-width="136" target-x="0" target-y="0"></path><path d="M 30.54 84.00 L 30.18 84.82 L 30.01 85.73 L 30.00 86.00 L 30.00 124.40 L 26.11 121.57 L 22.44 118.48 L 19.00 115.15 L 19.00 88.00 L 19.32 86.43 L 20.17 85.17 L 21.43 84.32 L 23.00 84.00 L 30.54 84.00 Z M 115.00 84.00 L 116.57 84.32 L 117.83 85.17 L 118.68 86.43 L 119.00 88.00 L 119.00 112.98 L 115.58 116.58 L 111.92 119.92 L 108.00 123.00 L 108.00 86.00 L 107.86 84.94 L 107.46 84.00 L 115.00 84.00 Z" fill="#144978" fill-rule="evenodd" group-id="1,2" id="形状" node-id="8" stroke-linecap="butt" stroke-width="1" target-height="40.39904" target-width="100.00168" target-x="18.998592" target-y="83.99899"></path><path d="M 68.20 135.97 L 68.27 135.50 L 68.88 135.57 L 70.12 135.84 L 70.10 135.91 L 68.86 136.00 L 68.51 136.00 L 68.33 135.99 L 68.20 135.97 Z M 68.19 135.97 L 68.14 135.96 L 67.62 135.84 L 66.51 135.53 L 66.45 135.45 L 67.43 135.42 L 68.11 135.48 L 68.19 135.97 Z M 68.37 134.88 L 68.27 135.50 L 68.11 135.48 L 68.00 134.88 L 68.37 134.88 Z M 64.72 90.45 L 64.68 90.85 L 64.71 90.85 L 63.87 111.60 L 61.04 95.38 L 60.13 90.08 L 62.53 90.36 L 63.02 90.37 L 64.73 90.37 L 64.72 90.45 Z M 73.06 90.37 L 74.89 90.13 L 75.21 90.04 L 72.82 105.88 L 69.75 125.94 L 69.15 129.82 L 72.01 111.22 L 71.08 90.37 L 73.06 90.37 Z" fill="#ffffff" fill-rule="evenodd" group-id="1,2" id="形状" node-id="9" stroke-linecap="butt" stroke-width="1" target-height="45.96045" target-width="15.083614" target-x="60.125904" target-y="90.03955"></path><path d="M 57.80 75.45 L 65.57 81.84 L 64.73 90.37 L 63.02 90.37 L 60.13 90.08 L 58.98 83.31 L 57.80 75.50 L 57.80 75.45 Z M 77.33 75.33 L 77.23 75.41 L 77.22 75.62 L 75.21 90.04 L 73.06 90.37 L 71.02 90.37 L 70.35 81.95 L 77.23 75.41 L 77.33 75.33 Z" fill="#dfdfdf" fill-rule="evenodd" group-id="1,2" id="形状" node-id="10" stroke-linecap="butt" stroke-width="1" target-height="15.03994" target-width="19.531902" target-x="57.79581" target-y="75.32585"></path><path d="M 63.10 129.88 L 64.87 132.31 L 66.34 133.89 L 62.94 133.88 L 63.10 129.88 Z M 70.34 80.82 L 71.02 89.37 L 71.08 89.37 L 72.01 110.22 L 68.91 130.42 L 68.91 130.42 L 68.37 133.88 L 68.00 133.88 L 63.87 110.60 L 63.87 110.60 L 64.71 89.85 L 64.68 89.85 L 64.72 89.45 L 64.73 89.37 L 64.73 89.37 L 65.57 80.82 L 70.34 80.82 Z M 72.93 131.04 L 73.06 133.88 L 70.64 133.88 L 71.71 132.72 L 72.93 131.04 Z" fill="#3d6491" fill-rule="evenodd" group-id="1,2" id="形状" node-id="11" stroke-linecap="butt" stroke-width="1" target-height="53.06212" target-width="10.12093" target-x="62.939533" target-y="80.82326"></path><path d="M 48.92 82.00 L 47.28 88.61 L 51.33 91.28 L 46.78 92.90 L 47.14 94.58 L 47.24 95.05 L 49.07 100.81 L 52.22 108.98 L 56.20 118.07 L 58.38 122.56 L 60.51 126.59 L 62.73 130.31 L 64.66 133.05 L 66.08 134.65 L 67.22 135.55 L 68.14 135.96 L 68.19 135.97 L 68.02 134.99 L 68.20 135.00 L 68.20 135.00 L 68.35 134.99 L 68.20 135.97 L 68.33 135.99 L 68.44 136.00 L 68.00 136.00 L 62.71 135.79 L 57.59 135.21 L 52.62 134.26 L 47.79 132.95 L 43.05 131.27 L 38.51 129.29 L 34.17 127.00 L 30.00 124.40 L 30.00 86.00 L 30.32 84.43 L 31.17 83.17 L 32.43 82.32 L 34.00 82.00 L 48.92 82.00 Z M 104.00 82.00 L 105.57 82.32 L 106.83 83.17 L 107.68 84.43 L 108.00 86.00 L 108.00 123.00 L 103.67 125.91 L 99.14 128.47 L 94.39 130.69 L 89.40 132.57 L 84.30 134.04 L 79.05 135.11 L 73.62 135.76 L 68.00 136.00 L 68.60 135.99 L 68.68 135.99 L 69.58 135.67 L 70.65 134.88 L 71.97 133.39 L 73.73 130.79 L 75.73 127.21 L 77.62 123.31 L 79.55 118.94 L 83.04 110.09 L 85.81 102.15 L 87.44 96.60 L 87.54 96.16 L 87.89 94.57 L 88.24 92.90 L 83.70 91.28 L 87.75 88.61 L 86.11 82.00 L 104.00 82.00 Z" fill="#48709d" fill-rule="evenodd" group-id="1,2" id="形状备份" node-id="12" stroke-linecap="butt" stroke-width="1" target-height="54.00004" target-width="78.00261" target-x="29.99808" target-y="81.99996"></path><path d="M 57.14 75.13 L 57.79 75.41 L 58.94 83.05 L 68.20 136.00 L 76.24 83.03 L 77.23 75.41 L 77.79 75.14 L 77.92 75.13 L 78.02 75.13 L 78.58 75.33 L 78.67 75.42 L 79.00 75.74 L 86.22 81.82 L 86.11 82.00 L 87.75 88.61 L 83.70 91.28 L 88.24 92.90 L 87.89 94.57 L 87.54 96.16 L 86.01 101.52 L 83.24 109.57 L 79.66 118.68 L 77.68 123.19 L 75.72 127.21 L 73.66 130.90 L 71.86 133.53 L 70.50 135.02 L 69.41 135.76 L 68.51 136.00 L 67.59 135.76 L 66.45 134.99 L 64.98 133.45 L 63.00 130.73 L 60.69 126.91 L 58.48 122.75 L 56.20 118.08 L 52.07 108.63 L 48.86 100.23 L 47.71 96.72 L 47.14 94.58 L 46.78 92.90 L 51.33 91.28 L 47.28 88.61 L 48.92 82.00 L 48.81 81.82 L 56.02 75.74 L 56.35 75.42 L 56.99 75.13 L 57.14 75.13 Z" fill="#7ca8d1" fill-rule="evenodd" group-id="1,2" id="Path" node-id="13" stroke-linecap="butt" stroke-width="1" target-height="60.86731" target-width="41.459534" target-x="46.782326" target-y="75.13269"></path><g node-id="28"><path d="M 77.16 9.49 L 78.73 9.81 L 79.99 10.66 L 80.84 11.92 L 81.16 13.49 L 81.16 16.52 L 84.24 16.52 L 85.81 16.84 L 87.07 17.69 L 87.92 18.95 L 88.24 20.52 L 88.24 35.61 L 85.25 35.61 L 85.20 24.36 L 84.85 22.90 L 84.02 21.72 L 82.83 20.90 L 81.36 20.54 L 81.16 20.54 L 54.84 20.54 L 53.75 20.69 L 53.83 20.67 L 53.83 14.50 L 53.84 14.35 L 54.02 13.66 L 54.41 13.09 L 54.98 12.69 L 55.67 12.51 L 55.83 12.50 L 53.81 12.50 L 53.06 12.65 L 52.44 13.04 L 52.01 13.62 L 51.81 14.35 L 51.81 14.50 L 51.81 21.90 L 51.86 21.84 L 51.86 21.84 L 51.12 22.98 L 50.80 24.36 L 50.79 24.56 L 50.79 35.61 L 47.88 35.61 L 47.76 34.62 L 47.76 13.49 L 48.08 11.92 L 48.93 10.66 L 50.19 9.81 L 51.76 9.49 L 77.16 9.49 Z" fill="#302e30" fill-rule="evenodd" group-id="1,2,3" id="路径" node-id="15" stroke-linecap="butt" stroke-width="1" target-height="26.12093" target-width="40.48372" target-x="47.75814" target-y="9.488372"></path><path d="M 55.83 12.50 L 55.08 12.65 L 54.47 13.04 L 54.03 13.62 L 53.84 14.35 L 53.83 14.50 L 53.83 20.67 L 52.71 21.14 L 51.81 21.90 L 51.81 14.50 L 51.97 13.72 L 52.39 13.09 L 53.02 12.66 L 53.81 12.50 L 55.83 12.50 Z" fill="#797272" fill-rule="evenodd" group-id="1,2,3" id="路径备份" node-id="16" stroke-linecap="butt" stroke-width="1" target-height="9.39892" target-width="4.025284" target-x="51.805412" target-y="12.502325"></path><path d="M 89.30 35.61 L 90.83 35.91 L 92.06 36.72 L 92.93 37.91 L 93.30 39.41 L 93.30 39.61 L 93.30 41.66 L 93.00 43.18 L 92.20 44.42 L 91.00 45.28 L 89.50 45.65 L 89.30 45.66 L 85.25 45.65 L 85.45 45.65 L 86.91 45.30 L 88.08 44.49 L 88.90 43.31 L 89.25 41.86 L 89.25 41.66 L 89.25 39.61 L 89.25 39.41 L 88.90 37.96 L 88.08 36.78 L 86.91 35.97 L 85.46 35.61 L 85.25 35.61 L 89.30 35.61 Z M 50.55 35.61 L 49.09 35.96 L 47.92 36.78 L 47.10 37.95 L 46.75 39.40 L 46.75 39.61 L 46.75 41.66 L 47.05 43.18 L 47.85 44.42 L 49.05 45.28 L 50.55 45.65 L 50.75 45.66 L 46.70 45.66 L 45.13 45.34 L 43.87 44.48 L 43.02 43.22 L 42.70 41.66 L 42.70 39.61 L 43.02 38.04 L 43.87 36.78 L 45.13 35.93 L 46.70 35.61 L 50.79 35.61 L 50.55 35.61 Z" fill="#f6be9d" fill-rule="evenodd" group-id="1,2,3" id="耳朵1" node-id="17" stroke-linecap="butt" stroke-width="1" target-height="10.047279" target-width="50.60465" target-x="42.697674" target-y="35.608536"></path><path d="M 50.79 35.61 L 50.79 45.66 L 50.75 45.66 L 49.18 45.34 L 47.92 44.48 L 47.07 43.22 L 46.75 41.66 L 46.75 39.61 L 47.05 38.08 L 47.85 36.85 L 49.05 35.99 L 50.55 35.61 L 50.79 35.61 Z M 85.21 35.61 L 85.25 35.61 L 86.78 35.91 L 88.02 36.72 L 88.88 37.91 L 89.25 39.41 L 89.25 39.61 L 89.25 41.66 L 88.95 43.18 L 88.15 44.42 L 86.95 45.28 L 85.45 45.65 L 85.21 45.66 L 85.21 35.61 Z" fill="#e9925f" fill-rule="evenodd" group-id="1,2,3" id="耳朵2" node-id="18" stroke-linecap="butt" stroke-width="1" target-height="10.047279" target-width="42.507904" target-x="46.746048" target-y="35.608536"></path><path d="M 81.16 20.54 L 82.70 20.84 L 83.95 21.65 L 84.83 22.86 L 85.20 24.36 L 85.21 24.56 L 85.21 51.68 L 85.07 54.37 L 84.71 56.33 L 84.19 57.71 L 82.36 60.17 L 78.90 63.74 L 76.81 65.52 L 74.67 67.05 L 72.46 68.21 L 70.54 68.73 L 70.48 68.76 L 65.98 68.76 L 64.04 68.40 L 61.77 67.32 L 59.56 65.81 L 57.37 63.99 L 55.35 62.04 L 53.74 60.29 L 52.39 58.62 L 51.81 57.71 L 51.29 56.33 L 50.93 54.37 L 50.79 51.68 L 50.79 24.56 L 51.12 22.98 L 51.98 21.72 L 53.25 20.86 L 54.84 20.54 L 81.16 20.54 Z M 77.81 56.93 L 59.77 56.93 L 59.59 56.95 L 59.50 56.97 L 59.39 57.01 L 58.87 57.49 L 58.81 58.21 L 59.62 60.24 L 60.73 61.85 L 62.15 63.10 L 63.90 64.03 L 66.09 64.62 L 68.79 64.84 L 71.50 64.62 L 73.68 64.03 L 75.44 63.10 L 76.85 61.85 L 77.96 60.24 L 78.77 58.21 L 78.81 57.93 L 78.67 57.41 L 78.30 57.06 L 78.19 57.01 L 78.07 56.96 L 77.90 56.93 L 77.81 56.93 Z" fill="#ffd0b6" fill-rule="evenodd" group-id="1,2,3" id="脸" node-id="19" stroke-linecap="butt" stroke-width="1" target-height="48.22325" target-width="34.411163" target-x="50.79442" target-y="20.539536"></path><path d="M 78.81 57.93 L 78.77 58.21 L 77.96 60.24 L 76.85 61.85 L 75.44 63.10 L 73.68 64.03 L 71.50 64.62 L 68.79 64.84 L 66.09 64.62 L 63.90 64.03 L 62.15 63.10 L 60.73 61.85 L 59.62 60.24 L 58.81 58.21 L 58.87 57.49 L 59.39 57.01 L 59.73 57.69 L 61.00 58.55 L 62.82 59.24 L 65.35 59.71 L 68.79 59.90 L 72.23 59.71 L 74.76 59.24 L 76.58 58.55 L 77.86 57.69 L 78.19 57.06 L 78.19 57.01 L 78.63 57.36 L 78.81 57.93 Z" fill="#ff9090" fill-rule="evenodd" group-id="1,2,3" id="路径" node-id="20" stroke-linecap="butt" stroke-width="1" target-height="7.832199" target-width="19.997711" target-x="58.8114" target-y="57.005013"></path><path d="M 77.81 56.93 L 78.19 57.01 L 78.19 56.94 L 78.10 57.35 L 77.86 57.69 L 76.58 58.55 L 74.76 59.24 L 72.23 59.71 L 68.79 59.90 L 65.35 59.71 L 62.82 59.24 L 61.00 58.55 L 59.73 57.69 L 59.39 57.01 L 59.50 56.97 L 59.77 56.93 L 77.81 56.93 Z" fill="#ff3e3e" fill-rule="evenodd" group-id="1,2,3" id="路径" node-id="21" stroke-linecap="butt" stroke-width="1" target-height="2.9651184" target-width="18.801369" target-x="59.391045" target-y="56.930233"></path><path d="M 57.88 64.44 L 59.89 66.06 L 61.89 67.39 L 63.95 68.37 L 65.73 68.76 L 65.98 68.76 L 70.48 68.76 L 70.54 68.73 L 72.05 68.37 L 73.76 67.59 L 75.44 66.54 L 77.16 65.25 L 77.16 75.48 L 70.48 81.82 L 65.55 81.82 L 57.88 75.52 L 57.88 64.44 Z" fill="#f3b996" fill-rule="evenodd" group-id="1,2,3" id="路径" node-id="22" stroke-linecap="butt" stroke-width="1" target-height="17.385185" target-width="19.279121" target-x="57.87728" target-y="64.43797"></path></g></g></g></svg>