<svg t="1680436663671" class="icon" viewBox="0 0 1024 1024" version="1.1" xmlns="http://www.w3.org/2000/svg" p-id="89583" width="200" height="200"><path d="M816.241778 764.586667l-77.368889-88.064a344.519111 344.519111 0 0 0 84.195555-226.190223 356.579556 356.579556 0 0 0-712.931555-1.365333 357.717333 357.717333 0 0 0 359.082667 353.621333A350.208 350.208 0 0 0 682.666667 730.680889l71.907555 85.333333a37.546667 37.546667 0 0 0 51.427556 4.096l5.461333-4.096a38.001778 38.001778 0 0 0 4.778667-51.427555z m-349.525334-4.096A313.344 313.344 0 0 1 150.869333 448.967111a315.847111 315.847111 0 0 1 631.466667 0 310.840889 310.840889 0 0 1-315.619556 311.523556z m226.190223-341.333334c-6.144-17.976889-16.611556-31.402667-37.546667-28.444444-2.958222 1.592889-8.874667-5.916444-10.467556-10.467556-8.874667-27.079111-19.342222-53.930667-28.444444-82.375111a49.379556 49.379556 0 0 0-34.360889-34.360889c-22.755556-6.144-45.511111-10.695111-68.266667-15.018666a347.022222 347.022222 0 0 0-97.166222 0c-12.060444 2.958222-25.486222 4.323556-39.139555 7.509333a77.368889 77.368889 0 0 0-68.266667 59.847111c-6.144 22.755556-15.018667 43.463111-22.755556 65.991111-1.592889 4.323556-5.916444 10.467556-9.102222 10.467556-23.893333-3.185778-32.768 11.832889-38.912 31.402666a35.498667 35.498667 0 0 0 0 12.060445l24.120889 5.916444c0 35.953778-1.592889 71.907556-1.592889 106.268445 0 19.569778-1.592889 37.546667 0 56.888889 1.592889 9.102222 4.551111 22.755556 9.102222 25.486222a204.8 204.8 0 0 0 74.865778 0 217.770667 217.770667 0 0 0 11.832889-45.511111h220.273778c5.916444 16.611556-4.551111 34.588444 12.060444 45.511111a245.304889 245.304889 0 0 0 73.272889-1.365333 40.277333 40.277333 0 0 0 7.509334-22.755556v-133.575111a197.518222 197.518222 0 0 0-2.958223-30.037333l25.486223-7.509334a54.158222 54.158222 0 0 0 0.455111-15.018666z m-332.686223 91.022223a139.036444 139.036444 0 0 1-23.893333 1.365333 273.066667 273.066667 0 0 1-35.953778-2.958222c-15.018667-2.958222-19.342222-15.018667-15.018666-35.953778 3.185778-15.018667 15.018667-15.018667 24.120889-12.060445 19.342222 7.509333 38.912 15.018667 56.888888 24.120889 4.551111 2.958222 10.467556 11.832889 8.874667 15.018667a28.216889 28.216889 0 0 1-15.018667 11.832889z m-43.235555-112.412445c10.467556-32.995556 20.935111-63.032889 32.768-92.842667 1.592889-5.916444 10.467556-10.467556 16.611555-12.060444a164.977778 164.977778 0 0 1 45.511112-7.509333c47.786667 0 94.435556 2.958222 142.222222 4.551111A40.049778 40.049778 0 0 1 591.644444 324.266667c5.916444 23.893333 13.425778 47.786667 22.755556 74.865777a664.917333 664.917333 0 0 1-297.415111 0z m318.577778 109.454222a314.026667 314.026667 0 0 1-35.953778 4.323556 104.675556 104.675556 0 0 1-30.72-1.592889c-10.467556-2.958222-14.791111-17.976889-4.323556-22.755556a544.768 544.768 0 0 1 68.266667-26.851555c9.102222-2.958222 16.611556 5.916444 16.611556 16.384s2.958222 27.306667-12.288 31.857778z" fill="#666666" p-id="89584"></path></svg>