<svg t="1680436384360" class="icon" viewBox="0 0 1024 1024" version="1.1" xmlns="http://www.w3.org/2000/svg" p-id="66401" width="200" height="200"><path d="M800.8 101.2C754 67.4 688.7 79 655.7 127.1l-290 423.2c-3.9-0.2-7.9-0.4-11.9-0.4-108 0-195.6 87.6-195.6 195.6s87.6 195.6 195.6 195.6 195.6-87.6 195.6-195.6c0-25.4-4.8-49.7-13.6-71.9L826 250.1c33-48.1 21.6-115.1-25.2-148.9z" fill="#54D3CC" p-id="66402"></path><path d="M353.8 956.2c-116.1 0-210.6-94.5-210.6-210.6S237.7 535 353.8 535h4.2l285.3-416.4c18.3-26.8 45.9-44.5 77.6-50.1 31.3-5.5 62.8 1.8 88.6 20.5 53.5 38.6 66.4 114.7 28.8 169.6L552.6 675.7c7.9 22.4 11.9 45.9 11.9 69.9 0 116.2-94.5 210.6-210.7 210.6z m0-391.2c-99.6 0-180.6 81-180.6 180.6s81 180.6 180.6 180.6 180.6-81 180.6-180.6c0-22.9-4.2-45.3-12.6-66.4l-2.9-7.4 294.7-430.1c13.7-20 19-44.5 14.9-68.8-4.1-24.3-17.1-45.4-36.5-59.5-19.2-13.9-42.6-19.3-65.9-15.2-23.7 4.1-44.3 17.4-58 37.5L373.3 565.8l-8.5-0.5c-3.8-0.2-7.5-0.3-11-0.3z" fill="#2A4964" p-id="66403"></path><path d="M526.4 495.5c-18.6-13.4-44.5-8.8-57.6 10.3L353.6 673.9c-1.6-0.1-3.1-0.1-4.7-0.1-42.9 0-77.7 34.8-77.7 77.7 0 42.9 34.8 77.7 77.7 77.7 42.9 0 77.7-34.8 77.7-77.7 0-10.1-1.9-19.7-5.4-28.6l115.3-168.2c13-19.1 8.5-45.7-10.1-59.2z" fill="#F25168" p-id="66404"></path><path d="M348.8 844.2c-51.1 0-92.7-41.6-92.7-92.7 0-50.1 39.9-91 89.6-92.7l110.7-161.5c8.7-12.7 21.7-21.1 36.7-23.7 14.9-2.6 29.8 0.9 42.1 9.7 25.2 18.2 31.3 54 13.6 79.8l-111 162c2.5 8.5 3.8 17.3 3.8 26.3-0.1 51.2-41.6 92.8-92.8 92.8z m0-155.4c-34.6 0-62.7 28.1-62.7 62.7s28.1 62.7 62.7 62.7 62.7-28.1 62.7-62.7c0-8-1.5-15.7-4.4-23.1l-2.9-7.4L524 546.2c8.4-12.3 5.5-29.9-6.4-38.5-5.6-4.1-12.5-5.7-19.3-4.5-7 1.2-13.1 5.2-17.1 11.1l-120 175.1-8.5-0.5c-1.4-0.1-2.6-0.1-3.9-0.1zM616.8 340l-73.7-48.6c-5.5-3.6-7-11.1-3.4-16.6l3.3-5c3.6-5.5 11.1-7 16.6-3.4l73.7 48.6c5.5 3.6 7 11.1 3.4 16.6l-3.3 5c-3.6 5.5-11 7-16.6 3.4zM573.3 407.7L499.6 359c-5.5-3.6-7-11.1-3.4-16.6l3.3-5c3.6-5.5 11.1-7 16.6-3.4l73.7 48.6c5.5 3.6 7 11.1 3.4 16.6l-3.3 5c-3.6 5.6-11.1 7.1-16.6 3.5zM661.3 277.5l-73.7-48.6c-5.5-3.6-7-11.1-3.4-16.6l3.3-5c3.6-5.5 11.1-7 16.6-3.4l73.7 48.6c5.5 3.6 7 11.1 3.4 16.6l-3.3 5c-3.6 5.5-11.1 7.1-16.6 3.4zM700.3 216.5l-73.7-48.6c-5.5-3.6-7-11.1-3.4-16.6l3.3-5c3.6-5.5 11.1-7 16.6-3.4l73.7 48.6c5.5 3.6 7 11.1 3.4 16.6l-3.3 5c-3.6 5.5-11.1 7-16.6 3.4z" fill="#2A4964" p-id="66405"></path><path d="M776.1 215.5L590.4 490.4" fill="#F25168" p-id="66406"></path><path d="M765.7 209.5c-21 31.1-42.1 62.3-63.1 93.4-33.3 49.2-66.5 98.5-99.8 147.7-7.6 11.2-15.2 22.5-22.8 33.7-3.6 5.4-1 13.3 4.3 16.4 5.9 3.5 12.8 1.1 16.4-4.3 21-31.1 42.1-62.3 63.1-93.4 33.3-49.2 66.5-98.5 99.8-147.7 7.6-11.2 15.2-22.5 22.8-33.7 3.6-5.4 1-13.3-4.3-16.4-5.9-3.5-12.7-1.1-16.4 4.3z" fill="#FFFFFF" p-id="66407"></path></svg>