<svg t="1680433838869" class="icon" viewBox="0 0 1024 1024" version="1.1" xmlns="http://www.w3.org/2000/svg" p-id="48644" width="200" height="200"><path d="M512 512c128-6.4 230.4-115.2 224-249.6 6.4-128-96-243.2-224-249.6-128 12.8-230.4 121.6-224 249.6A236.8 236.8 0 0 0 512 512z m-25.6 243.2l211.2-300.8c-64-19.2-121.6-25.6-185.6-25.6-89.6-6.4-179.2 12.8-268.8 51.2-25.6 12.8-32 25.6-44.8 57.6-51.2 83.2-128 204.8-153.6 249.6-19.2 25.6-57.6 83.2-32 134.4 19.2 38.4 38.4 70.4 64 102.4h128c6.4-147.2 128-268.8 281.6-268.8z m492.8 25.6c-38.4-70.4-121.6-204.8-134.4-217.6-6.4-12.8-38.4-76.8-89.6-96l-19.2-6.4-198.4 288c153.6 0 275.2 121.6 288 268.8h115.2s12.8 0 70.4-108.8c19.2-51.2 0-76.8-32-128z m-467.2 44.8c-134.4 0-236.8 83.2-236.8 198.4h480c0-115.2-108.8-198.4-243.2-198.4z m0 0M1004.8 384l-185.6 44.8-6.4-38.4 76.8-147.2-102.4 25.6-12.8-38.4 179.2-38.4 6.4 38.4-83.2 147.2 115.2-25.6 12.8 32zM992 108.8l-108.8 25.6-6.4-19.2 44.8-83.2-57.6 12.8-6.4-25.6 108.8-19.2 6.4 19.2-44.8 83.2 64-19.2v25.6z" fill="#11b88b" p-id="48645"></path></svg>