<svg height="128" xmlns="http://www.w3.org/2000/svg" viewBox="0 0 256 256" width="128" style="font-size: 128px;">
    <defs>
        <style>.cls-1{fill:#e7f1fa;}.cls-2{fill:#fdc765;}.cls-3{fill:#000209;}.cls-4{fill:#1891fd;}</style>
    </defs>
    <g transform="matrix(0.99999999,0,0,0.99999999,-6.0679042e-07,-6.8668055e-07)">
        <g transform="matrix(1.3195514,0,0,1.3195514,-40.901093,-40.911957)">
            <g id="执行层">
                <path class="cls-1" d="M225,128a95.06,95.06,0,0,1-.55,10.32A97,97,0,1,1,225,128Z"></path>
                <path class="cls-2" d="M125,89h49a20,20,0,0,1,20,20v28a0,0,0,0,1,0,0H105a0,0,0,0,1,0,0V109A20,20,0,0,1,125,89Z"></path>
                <path class="cls-3" d="M194,139H105a2,2,0,0,1-2-2V109a22,22,0,0,1,22-22h49a22,22,0,0,1,22,22v28A2,2,0,0,1,194,139Zm-87-4h85V109a18,18,0,0,0-18-18H125a18,18,0,0,0-18,18Z"></path>
                <path class="cls-4" d="M67.59,164H105V110H85.9A20,20,0,0,0,66,127.79l-3.4,30.66A5,5,0,0,0,67.59,164Z"></path>
                <path class="cls-3" d="M105,166H67.59a7,7,0,0,1-7-7.77L64,127.57A22,22,0,0,1,85.9,108H105a2,2,0,0,1,2,2v54A2,2,0,0,1,105,166ZM85.9,112A18,18,0,0,0,68,128L64.6,158.67a3,3,0,0,0,3,3.33H103V112Z"></path>
                <path class="cls-4" d="M105,137h89a0,0,0,0,1,0,0v23a4,4,0,0,1-4,4H105a0,0,0,0,1,0,0V137A0,0,0,0,1,105,137Z"></path>
                <path class="cls-3" d="M190,166H105a2,2,0,0,1-2-2V137a2,2,0,0,1,2-2h89a2,2,0,0,1,2,2v23A6,6,0,0,1,190,166Zm-83-4h83a2,2,0,0,0,2-2V139H107Z"></path>
                <circle cx="86" cy="164" r="11" class="cls-4"></circle>
                <path class="cls-3" d="M86,177a13,13,0,1,1,13-13A13,13,0,0,1,86,177Zm0-22a9,9,0,1,0,9,9A9,9,0,0,0,86,155Z"></path>
                <circle cx="170" cy="164" r="11" class="cls-4"></circle>
                <path class="cls-3" d="M170,177a13,13,0,1,1,13-13A13,13,0,0,1,170,177Zm0-22a9,9,0,1,0,9,9A9,9,0,0,0,170,155Z"></path>
                <path class="cls-3" d="M182.26,122H162a2,2,0,0,1,0-4h20.26a2,2,0,0,1,0,4Z"></path>
                <path class="cls-3" d="M154,122h-6a2,2,0,0,1,0-4h6a2,2,0,0,1,0,4Z"></path>
            </g>
        </g>
    </g>
</svg>