<svg version="1.1" x="0px" xml:space="preserve" width="128" xmlns="http://www.w3.org/2000/svg" height="128" id="体温计" style="font-size: 128px;" xmlns:xlink="http://www.w3.org/1999/xlink" viewBox="0 0 256 256" y="0px">
    <style type="text/css">
	.st0{fill:#00BCD4;}
	.st1{opacity:0.28;fill:#00BCD4;}
</style>
    <g transform="matrix(0.45578268,0,0,0.45578268,-103.15033,-107.71002)">
        <g>
            <rect transform="matrix(0.7071 -0.7071 0.7071 0.7071 -126.4825 547.658)" x="491.78" width="212.13" height="40" class="st0" y="406.51"></rect>
            <g>
                <path class="st1" d="M488,558.5c0,12.43-10.07,22.5-22.5,22.5c-2.56,0-5.01-0.43-7.3-1.22l-58.61,58.61l116.26-36.41L731.6,386.23
			c11.15-11.15,16.96-26.42,16.36-43c-0.51-14.02-5.51-27.55-14.25-38.95L486.78,551.2C487.57,553.49,488,555.94,488,558.5z"></path>
                <path d="M755.63,268.7c-19.84-19.85-45.79-31.32-73.05-32.31c-27.81-1.02-53.64,8.95-72.74,28.05L390.61,483.67
			c-2.28,2.29-3.98,5.09-4.94,8.17l-50.53,161.33c-4.96-1.48-10.16-2.26-15.48-2.26c-14.36,0-27.86,5.59-38.02,15.75l-39.57,39.57
			c-20.96,20.97-20.96,55.08,0,76.04c10.48,10.48,24.25,15.72,38.02,15.72c13.77,0,27.54-5.24,38.02-15.72l39.57-39.57
			c10.16-10.16,15.75-23.66,15.75-38.02c0-5.32-0.77-10.52-2.26-15.48l161.31-50.52c3.09-0.96,5.89-2.66,8.17-4.94l219.24-219.25
			C798.91,375.47,797,310.07,755.63,268.7z M329.39,714.41l-39.57,39.57c-5.37,5.37-14.1,5.37-19.47,0
			c-5.36-5.36-5.36-14.1,0.01-19.46l39.57-39.57c2.6-2.6,6.05-4.03,9.73-4.03c3.67,0,7.13,1.43,9.73,4.03
			c2.6,2.6,4.03,6.05,4.03,9.73C333.42,708.35,331.99,711.81,329.39,714.41z M422.36,508.49l215.76-215.74
			c11.15-11.15,26.42-16.96,43-16.36c17.13,0.62,33.54,7.94,46.22,20.62c2.3,2.31,4.43,4.74,6.37,7.27
			c8.74,11.4,13.74,24.93,14.25,38.95c0.6,16.58-5.21,31.85-16.36,43L515.85,601.98l-116.26,36.41l-19.86,6.22L422.36,508.49z"></path>
                <path d="M488,558.5c0-2.56-0.43-5.01-1.22-7.3c-3.03-8.84-11.41-15.2-21.28-15.2c-12.43,0-22.5,10.07-22.5,22.5
			c0,9.87,6.36,18.25,15.2,21.28c2.29,0.79,4.74,1.22,7.3,1.22C477.93,581,488,570.93,488,558.5z"></path>
            </g>
        </g>
    </g>
</svg>