<svg xmlns="http://www.w3.org/2000/svg" width="128" height="128" id="图标层-扩展_复制" viewBox="0 0 256 256" style="font-size: 128px;">
    <defs>
        <style>.cls-1{fill:#fff;}.cls-2{fill:#181c44;}.cls-3{fill:#66b3ff;}.cls-4{fill:#ff6680;}</style>
    </defs>
    <g transform="matrix(1.2307692,0,0,1.2307692,-29.538461,-29.538461)">
        <g transform="matrix(0.23213283,0,0,0.23213283,6.3624127,9.1524609)">
            <path d="M746.89,464.28C661,270,456,80,456,80S289.61,234.21,193.85,406.79C419.09,259.5,564.14,615.45,746.89,464.28Z" class="cls-1"></path>
            <path d="M650,518.49a170.41,170.41,0,0,1-35.76-3.92c-44.55-9.55-86.51-34.42-130.94-60.76-43.22-25.62-87.92-52.12-134.41-62.68-51.57-11.72-98-2.49-146.28,29.05A16,16,0,0,1,179.86,399C230,308.6,299.48,223.5,348.89,168c53.46-60,94.51-98.18,96.23-99.77a16,16,0,0,1,21.76,0c2.12,2,52.62,48.93,114.48,120.57,57.27,66.33,135,166.83,180.16,269a16,16,0,0,1-4.43,18.79C723.21,504.64,687.91,518.49,650,518.49ZM307.12,354.23c71,0,134.25,37.52,192.5,72,42.11,25,81.88,48.55,121.32,57,38.54,8.25,72.55.67,106.17-23.86C683,364.88,611,272.19,557.41,210.07c-44.16-51.16-83.19-90.23-101.4-107.93-34,33.12-140.84,141.08-219.93,265.12A201.56,201.56,0,0,1,307.12,354.23Z" class="cls-2"></path>
            <path d="M193.85,406.79C155.16,476.52,128,549.24,128,616c0,181.15,146.85,328,328,328S784,797.15,784,616c0-48.57-14.38-100.29-37.11-151.72C564.14,615.45,419.09,259.5,193.85,406.79Z" class="cls-3"></path>
            <path d="M456,960A343.72,343.72,0,0,1,112,616c0-62.82,22.83-135.82,67.86-217a16.07,16.07,0,0,1,5.24-5.63c123.18-80.55,224.83-20.29,314.52,32.88,42.11,25,81.88,48.55,121.32,57,42.21,9,79-.91,115.75-31.32a16,16,0,0,1,24.83,5.86C787.06,515.58,800,568.8,800,616A343.72,343.72,0,0,1,456,960ZM205.91,418.06C164.83,493,144,559.56,144,616a312,312,0,1,0,624,0c0-37.72-9.37-80.23-27.9-126.61-39.25,26.64-80.61,34.87-125.86,25.18-44.55-9.55-86.51-34.42-130.94-60.76-43.22-25.62-87.92-52.12-134.41-62.68C298.5,379.67,253,388.23,205.91,418.06Z" class="cls-2"></path>
            <circle cx="748" cy="284" r="172" class="cls-4"></circle>
            <path d="M748,472c-103.66,0-188-84.34-188-188S644.34,96,748,96s188,84.34,188,188S851.66,472,748,472Zm0-344c-86,0-156,70-156,156s70,156,156,156,156-70,156-156S834,128,748,128Z" class="cls-2"></path>
            <path d="M792,396a44,44,0,1,1,44-44A44.05,44.05,0,0,1,792,396Zm0-64a20,20,0,1,0,20,20A20,20,0,0,0,792,332Z" class="cls-1"></path>
            <path d="M704,260a44,44,0,1,1,44-44A44.05,44.05,0,0,1,704,260Zm0-64a20,20,0,1,0,20,20A20,20,0,0,0,704,196Z" class="cls-1"></path>
            <path d="M692,394.43a12,12,0,0,1-10.38-18l116-200.86a12,12,0,0,1,20.79,12l-116,200.86A12,12,0,0,1,692,394.43Z" class="cls-1"></path>
        </g>
    </g>
</svg>