<svg height="128" viewBox="0 0 256 256" id="图标层-扩展_复制" xmlns="http://www.w3.org/2000/svg" width="128" style="font-size: 128px;">
    <defs>
        <style>.cls-1{fill:#fff;}.cls-2{fill:#181c44;}.cls-3{fill:#ff6680;}.cls-4{fill:#66b3ff;}</style>
    </defs>
    <g transform="matrix(1.2307692,0,0,1.2307692,-29.538462,-29.538462)">
        <g transform="matrix(0.25,0,0,0.25,0,0)">
            <path d="M288,512H112a398.22,398.22,0,0,0,49,192H315.45C298,647,288,581.58,288,512Z" class="cls-1"></path>
            <path d="M315.45,720H161a16,16,0,0,1-14-8.31A416.5,416.5,0,0,1,96,512a16,16,0,0,1,16-16H288a16,16,0,0,1,16,16c0,65.54,9.25,130.31,26.74,187.3A16,16,0,0,1,315.45,720ZM170.62,688H294.23c-13.3-49.93-20.84-104.56-22.05-160H128.33A384.7,384.7,0,0,0,170.62,688Z" class="cls-2"></path>
            <path d="M315.45,320H161a398.22,398.22,0,0,0-49,192H288C288,442.42,298,377,315.45,320Z" class="cls-1"></path>
            <path d="M288,528H112a16,16,0,0,1-16-16,416.5,416.5,0,0,1,51-199.69A16,16,0,0,1,161,304H315.45a16,16,0,0,1,15.29,20.7C313.25,381.69,304,446.46,304,512A16,16,0,0,1,288,528ZM128.33,496H272.18c1.21-55.44,8.75-110.07,22.05-160H170.62A384.7,384.7,0,0,0,128.33,496Z" class="cls-2"></path>
            <path d="M708.55,320H863C795,196,663.33,112,512,112,596.75,112,670.5,196,708.55,320Z" class="cls-3"></path>
            <path d="M863,336H708.55a16,16,0,0,1-15.29-11.3c-18.3-59.61-45-109.51-77.22-144.32C584.33,146.11,548.35,128,512,128a16,16,0,0,1,0-32A416.24,416.24,0,0,1,877,312.31,16,16,0,0,1,863,336ZM720.25,304H834.84A386,386,0,0,0,710.48,183.21a381.34,381.34,0,0,0-84.23-37.88q6.75,6.27,13.28,13.32C672.89,194.69,700.67,244.77,720.25,304Z" class="cls-2"></path>
            <path d="M512,112c-151.33,0-283,84-351,208H315.45C353.5,196,427.25,112,512,112Z" class="cls-3"></path>
            <path d="M315.45,336H161a16,16,0,0,1-14-23.69A416.24,416.24,0,0,1,512,96a16,16,0,0,1,0,32c-36.35,0-72.32,18.11-104,52.38C375.74,215.19,349,265.09,330.74,324.7A16,16,0,0,1,315.45,336ZM189.16,304H303.75c19.58-59.23,47.36-109.31,80.72-145.35q6.52-7.05,13.28-13.32a381.34,381.34,0,0,0-84.23,37.88A386,386,0,0,0,189.16,304Z" class="cls-2"></path>
            <path d="M512,912c151.33,0,283-84,351-208H708.55C670.5,828,596.75,912,512,912Z" class="cls-4"></path>
            <path d="M512,928a16,16,0,0,1,0-32c36.35,0,72.33-18.11,104-52.38,32.22-34.81,58.92-84.71,77.22-144.32A16,16,0,0,1,708.55,688H863a16,16,0,0,1,14,23.69A416.24,416.24,0,0,1,512,928ZM720.25,720c-19.58,59.23-47.36,109.31-80.72,145.35q-6.53,7-13.28,13.32a381.34,381.34,0,0,0,84.23-37.88A386,386,0,0,0,834.84,720Z" class="cls-2"></path>
            <path d="M736,512H912a398.22,398.22,0,0,0-49-192H708.55C726.05,377,736,442.42,736,512Z" class="cls-1"></path>
            <path d="M912,528H736a16,16,0,0,1-16-16c0-65.54-9.25-130.31-26.74-187.3A16,16,0,0,1,708.55,304H863a16,16,0,0,1,14,8.31A416.53,416.53,0,0,1,928,512,16,16,0,0,1,912,528ZM752,512h0Zm-.18-16H895.67a384.7,384.7,0,0,0-42.29-160H729.77C743.07,385.93,750.61,440.56,751.82,496Z" class="cls-2"></path>
            <path d="M736,512c0,69.58-10,135-27.45,192H863a398.22,398.22,0,0,0,49-192Z" class="cls-1"></path>
            <path d="M863,720H708.55a16,16,0,0,1-15.29-20.7C710.75,642.31,720,577.54,720,512a16,16,0,0,1,16-16H912a16,16,0,0,1,16,16,416.53,416.53,0,0,1-51,199.69A16,16,0,0,1,863,720ZM729.77,688H853.38a384.7,384.7,0,0,0,42.29-160H751.82C750.61,583.44,743.07,638.07,729.77,688Z" class="cls-2"></path>
            <path d="M315.45,704H161c68,124,199.66,208,351,208C427.25,912,353.5,828,315.45,704Z" class="cls-4"></path>
            <path d="M512,928A416.24,416.24,0,0,1,147,711.69,16,16,0,0,1,161,688H315.45a16,16,0,0,1,15.29,11.3c18.3,59.61,45,109.51,77.22,144.32C439.68,877.89,475.65,896,512,896a16,16,0,0,1,0,32ZM189.16,720A386,386,0,0,0,313.52,840.79a381.34,381.34,0,0,0,84.23,37.88q-6.75-6.27-13.28-13.32c-33.36-36-61.14-86.12-80.72-145.35Z" class="cls-2"></path>
            <path d="M512,320V512H736c0-69.58-10-135-27.45-192Z" class="cls-1"></path>
            <path d="M736,528H512a16,16,0,0,1-16-16V320a16,16,0,0,1,16-16H708.55a16,16,0,0,1,15.3,11.3c18.41,60,28.15,128,28.15,196.7A16,16,0,0,1,736,528ZM528,496H719.82c-1.28-55.76-9.23-110.54-23.23-160H528Z" class="cls-2"></path>
            <path d="M288,512c0,69.58,9.95,135,27.45,192H512V512Z" class="cls-1"></path>
            <path d="M512,720H315.45a16,16,0,0,1-15.3-11.3C281.73,648.7,272,580.69,272,512a16,16,0,0,1,16-16H512a16,16,0,0,1,16,16V704A16,16,0,0,1,512,720ZM327.41,688H496V528H304.18C305.46,583.76,313.41,638.54,327.41,688Z" class="cls-2"></path>
            <path d="M512,704H708.55C726.05,647,736,581.58,736,512H512Z" class="cls-1"></path>
            <path d="M708.55,720H512a16,16,0,0,1-16-16V512a16,16,0,0,1,16-16H736a16,16,0,0,1,16,16c0,68.69-9.74,136.7-28.15,196.7A16,16,0,0,1,708.55,720ZM528,688H696.59c14-49.46,21.95-104.24,23.23-160H528Z" class="cls-2"></path>
            <path d="M512,320H315.45C298,377,288,442.42,288,512H512Z" class="cls-1"></path>
            <path d="M512,528H288a16,16,0,0,1-16-16c0-68.69,9.73-136.7,28.15-196.7a16,16,0,0,1,15.3-11.3H512a16,16,0,0,1,16,16V512A16,16,0,0,1,512,528ZM304.18,496H496V336H327.41C313.41,385.46,305.46,440.24,304.18,496Z" class="cls-2"></path>
            <path d="M315.45,704C353.5,828,427.25,912,512,912V704Z" class="cls-4"></path>
            <path d="M512,928c-45.5,0-89.59-21.66-127.53-62.65C349,827,319.85,772.87,300.15,708.7a16,16,0,0,1,15.3-20.7H512a16,16,0,0,1,16,16V912A16,16,0,0,1,512,928ZM337.57,720c17.85,50.48,42,92.92,70.39,123.62,27.05,29.22,57.2,46.7,88,51.21V720Z" class="cls-2"></path>
            <path d="M708.55,704H512V912C596.75,912,670.5,828,708.55,704Z" class="cls-4"></path>
            <path d="M512,928a16,16,0,0,1-16-16V704a16,16,0,0,1,16-16H708.55a16,16,0,0,1,15.3,20.7C704.15,772.87,675,827,639.53,865.35,601.59,906.34,557.5,928,512,928Zm16-208V894.83c30.84-4.51,61-22,88-51.21,28.42-30.7,52.54-73.14,70.39-123.62Z" class="cls-2"></path>
            <path d="M315.45,320H512V112C427.25,112,353.5,196,315.45,320Z" class="cls-3"></path>
            <path d="M512,336H315.45a16,16,0,0,1-15.3-20.7C319.85,251.13,349,197,384.47,158.65,422.41,117.66,466.5,96,512,96a16,16,0,0,1,16,16V320A16,16,0,0,1,512,336ZM337.57,304H496V129.17c-30.84,4.51-61,22-88,51.21C379.54,211.08,355.42,253.52,337.57,304Z" class="cls-2"></path>
            <path d="M708.55,320C670.5,196,596.75,112,512,112V320Z" class="cls-3"></path>
            <path d="M708.55,336H512a16,16,0,0,1-16-16V112a16,16,0,0,1,16-16c45.5,0,89.59,21.66,127.53,62.65C675,197,704.15,251.13,723.85,315.3a16,16,0,0,1-15.3,20.7ZM528,304H686.43c-17.85-50.48-42-92.92-70.39-123.62-27-29.22-57.2-46.7-88-51.21Z" class="cls-2"></path>
        </g>
    </g>
</svg>