<svg version="1.1" y="0px" xmlns:xlink="http://www.w3.org/1999/xlink" style="font-size: 128px;" viewBox="0 0 256 256" width="128" x="0px" height="128" xmlns="http://www.w3.org/2000/svg" id="图标" xml:space="preserve">
    <style type="text/css">
	.st0{fill:#F7DB6E;stroke:#05006B;stroke-width:4;stroke-linecap:round;stroke-linejoin:round;stroke-miterlimit:10;}
	.st1{fill:#C7E6FF;stroke:#05006B;stroke-width:4;stroke-linecap:round;stroke-linejoin:round;stroke-miterlimit:10;}
	.st2{fill:#649CFF;stroke:#05006B;stroke-width:4;stroke-linecap:round;stroke-linejoin:round;stroke-miterlimit:10;}
	.st3{fill:#86BFF7;stroke:#05006B;stroke-width:4;stroke-linecap:round;stroke-linejoin:round;stroke-miterlimit:10;}
	.st4{fill:#AEDAFF;stroke:#05006B;stroke-width:4;stroke-linecap:round;stroke-linejoin:round;stroke-miterlimit:10;}
	.st5{fill:#F7DB6E;stroke:#05006B;stroke-width:3.86;stroke-linecap:round;stroke-linejoin:round;stroke-miterlimit:10;}
	.st6{fill:none;stroke:#05006B;stroke-width:4;stroke-linecap:round;stroke-linejoin:round;stroke-miterlimit:10;}
	.st7{fill:#86BFF7;stroke:#05006B;stroke-width:4.5849;stroke-linecap:round;stroke-linejoin:round;stroke-miterlimit:10;}
	.st8{fill:#86BFF7;stroke:#05006B;stroke-width:4.1372;stroke-linecap:round;stroke-linejoin:round;stroke-miterlimit:10;}
	.st9{fill:#05006B;}
	.st10{fill:#F7DB6E;stroke:#05006B;stroke-width:3.6615;stroke-linecap:round;stroke-linejoin:round;stroke-miterlimit:10;}
	.st11{fill:#C7E6FF;stroke:#05006B;stroke-width:3.7672;stroke-linecap:round;stroke-linejoin:round;stroke-miterlimit:10;}
	.st12{fill:#649CFF;stroke:#05006B;stroke-width:4.2893;stroke-linecap:round;stroke-linejoin:round;stroke-miterlimit:10;}
	.st13{fill:#F7DB6E;stroke:#05006B;stroke-width:4.2893;stroke-linecap:round;stroke-linejoin:round;stroke-miterlimit:10;}
</style>
    <g transform="matrix(1.3535148,0,0,1.3535148,-50.393251,-47.415518)">
        <path class="st8" d="M192.8,222.1h-122c-5.9,0-10.7-4.8-10.7-10.7V47.8c0-5.9,4.8-10.7,10.7-10.7h122c5.9,0,10.7,4.8,10.7,10.7
	v163.5C203.5,217.2,198.7,222.1,192.8,222.1z"></path>
        <path class="st11" d="M181.1,114h-27.9c-3.8,0-7-3.1-7-7v-0.9c0-3.8,3.1-7,7-7h27.9c3.8,0,7,3.1,7,7v0.9
	C188.1,110.9,184.9,114,181.1,114z"></path>
        <path class="st11" d="M181.1,144.3h-27.9c-3.8,0-7-3.1-7-7v-0.9c0-3.8,3.1-7,7-7h27.9c3.8,0,7,3.1,7,7v0.9
	C188.1,141.2,184.9,144.3,181.1,144.3z"></path>
        <path class="st11" d="M181.1,83.8h-27.9c-3.8,0-7-3.1-7-7V76c0-3.8,3.1-7,7-7h27.9c3.8,0,7,3.1,7,7v0.9
	C188.1,80.6,184.9,83.8,181.1,83.8z"></path>
        <path class="st12" d="M130.8,143V88.6c0-12.9-10.5-23.4-23.4-23.4h0c-12.9,0-23.4,10.5-23.4,23.4V144c-4.5,5.6-7.2,12.7-6.9,20.5
	c0.6,15.6,13.1,28.6,28.7,29.5c17.9,1.1,32.7-13,32.7-30.7C138.7,155.6,135.7,148.4,130.8,143z"></path>
        <path class="st13" d="M116.4,146.2v-42.7c0-4.7-3.8-8.5-8.5-8.5h0c-4.7,0-8.5,3.8-8.5,8.5v42.7c-6.7,3.4-11,10.7-10.1,18.9
	c1,8.5,7.9,15.4,16.4,16.4c11.3,1.3,20.8-7.5,20.8-18.6C126.6,155.6,122.5,149.3,116.4,146.2z"></path>
    </g>
</svg>