<svg width="128" id="图层_2" xmlns="http://www.w3.org/2000/svg" viewBox="0 0 256 256" height="128" data-name="图层 2" style="font-size: 128px;">
    <defs>
        <style>.cls-1{fill:#7e84a8;}.cls-2{fill:#5d5169;}.cls-3{fill:#f0f3ff;}.cls-4{fill:#bec5ea;}.cls-5{fill:#acb7e5;}.cls-6{fill:#fff;}.cls-7{fill:#6d7197;}.cls-8{fill:#5b638e;}.cls-9{fill:#ffd110;}.cls-10{fill:#ffb612;}.cls-11{fill:#598bfc;}.cls-12{fill:#1c64f4;}</style>
    </defs>
    <title>未标题-1</title>
    <g transform="matrix(0.99999999,0,0,0.99999999,-4e-07,9.3694158e-08)">
        <g transform="matrix(1.2192218,0,0,1.2192218,-28.042101,-28.063415)">
            <rect width="39.67" x="57.83" height="8.17" class="cls-1" y="65.91"></rect>
            <path d="M97.5,75.58H57.83a1.5,1.5,0,0,1-1.5-1.5V65.91a1.5,1.5,0,0,1,1.5-1.5H97.5a1.5,1.5,0,0,1,1.5,1.5v8.17A1.5,1.5,0,0,1,97.5,75.58Zm-38.17-3H96V67.41H59.33Z" class="cls-2"></path>
            <path d="M110.58,70.16H224.42a4.08,4.08,0,0,1,4.08,4.08V175.83a0,0,0,0,1,0,0h-122a0,0,0,0,1,0,0V74.24A4.08,4.08,0,0,1,110.58,70.16Z" class="cls-3"></path>
            <rect width="2.54" x="126.99" height="67.91" class="cls-4" rx="1.27" y="92.66"></rect>
            <rect width="2.54" x="146.99" height="67.91" class="cls-4" rx="1.27" y="92.66"></rect>
            <rect width="2.54" x="166.99" height="67.91" class="cls-4" rx="1.27" y="92.66"></rect>
            <rect width="2.54" x="186.99" height="67.91" class="cls-4" rx="1.27" y="92.66"></rect>
            <rect width="2.54" x="206.99" height="67.91" class="cls-4" rx="1.27" y="92.66"></rect>
            <path d="M222.47,175.83a28.8,28.8,0,0,0-57.32,0Z" class="cls-5"></path>
            <rect width="120.83" x="107.67" height="10.29" class="cls-6" y="71.38"></rect>
            <path d="M126,160.83a1.5,1.5,0,0,1-1.5-1.5V92.66a1.5,1.5,0,0,1,3,0v66.67A1.5,1.5,0,0,1,126,160.83Z" class="cls-2"></path>
            <path d="M146,160.83a1.5,1.5,0,0,1-1.5-1.5V92.66a1.5,1.5,0,0,1,3,0v66.67A1.5,1.5,0,0,1,146,160.83Z" class="cls-2"></path>
            <path d="M166,160.83a1.5,1.5,0,0,1-1.5-1.5V92.66a1.5,1.5,0,1,1,3,0v66.67A1.5,1.5,0,0,1,166,160.83Z" class="cls-2"></path>
            <path d="M186,160.83a1.5,1.5,0,0,1-1.5-1.5V92.66a1.5,1.5,0,1,1,3,0v66.67A1.5,1.5,0,0,1,186,160.83Z" class="cls-2"></path>
            <path d="M206,160.83a1.5,1.5,0,0,1-1.5-1.5V92.66a1.5,1.5,0,1,1,3,0v66.67A1.5,1.5,0,0,1,206,160.83Z" class="cls-2"></path>
            <path d="M228.5,177.33h-122a1.5,1.5,0,0,1-1.5-1.5V74.24a5.58,5.58,0,0,1,5.58-5.58h40.94a1.5,1.5,0,0,1,0,3H110.58A2.59,2.59,0,0,0,108,74.24V174.33H227V74.24a2.59,2.59,0,0,0-2.58-2.58H175.74a1.5,1.5,0,0,1,0-3h48.68A5.58,5.58,0,0,1,230,74.24V175.83A1.5,1.5,0,0,1,228.5,177.33Z" class="cls-2"></path>
            <path d="M170,71.66h-9a1.5,1.5,0,0,1,0-3h9a1.5,1.5,0,0,1,0,3Z" class="cls-2"></path>
            <rect width="206.94" x="24.53" height="9.97" class="cls-7" rx="1.62" y="176.24"></rect>
            <polygon points="221.3 175.88 219.82 186.21 212.42 186.03 214.32 175.35 221.3 175.88" class="cls-8"></polygon>
            <path d="M166,175.83s-.12,10.38,1.5,10.38H173l-1.13-10.38Z" class="cls-8"></path>
            <polygon points="114.73 176.25 113.56 186.21 102.39 185.77 106.59 174.5 114.73 176.25" class="cls-8"></polygon>
            <path d="M58.48,176.21s.32,10,2,10h3.28V175.83Z" class="cls-8"></path>
            <path d="M229.84,187.71H26.16A3.13,3.13,0,0,1,23,184.59v-6.72a3.13,3.13,0,0,1,3.13-3.13H229.84a3.13,3.13,0,0,1,3.13,3.13v6.72A3.13,3.13,0,0,1,229.84,187.71Zm-203.68-10a.13.13,0,0,0-.13.13v6.72a.12.12,0,0,0,.13.12H229.84a.12.12,0,0,0,.13-.12v-6.72a.13.13,0,0,0-.13-.13Z" class="cls-2"></path>
            <path d="M54.6,73.6a9.77,9.77,0,0,0-9.39,7.05L32,126a109.2,109.2,0,0,0-3.32,26.75v23.5h73V76.64a3,3,0,0,0-3-3Z" class="cls-7"></path>
            <polygon points="32.01 125.98 91.92 126 91.92 85.33 42.29 85.33 32.01 125.98" class="cls-3"></polygon>
            <polygon points="50.76 86.43 38.92 125.55 31.1 126 44 86.43 50.76 86.43" class="cls-6"></polygon>
            <polygon points="84.07 86.12 66.5 125.99 91.92 126 91.92 85.33 84.07 86.12" class="cls-4"></polygon>
            <path d="M32.2,125.43H92.31a0,0,0,0,1,0,0v1.64a3.66,3.66,0,0,1-3.66,3.66H32.2a0,0,0,0,1,0,0v-5.3A0,0,0,0,1,32.2,125.43Z" class="cls-8"></path>
            <path d="M31.79,137.57h69.89v38.67h-73S28.46,142.2,31.79,137.57Z" class="cls-8"></path>
            <path d="M101.68,177.74h-73a1.5,1.5,0,0,1-1.5-1.5V153a113.48,113.48,0,0,1,3.43-27.7l7.76-26.69a1.5,1.5,0,0,1,2.88.84l-7.74,26.64A110.13,110.13,0,0,0,30.22,153v21.7h70V76.64a1.54,1.54,0,0,0-1.54-1.54h-44a8.31,8.31,0,0,0-8,6L42.78,94.36a1.5,1.5,0,1,1-2.88-.83l3.87-13.3A11.33,11.33,0,0,1,54.6,72.1h44a4.54,4.54,0,0,1,4.54,4.54v99.6A1.5,1.5,0,0,1,101.68,177.74Z" class="cls-2"></path>
            <path d="M63.5,107.49a1.56,1.56,0,0,1-.67-.15,1.51,1.51,0,0,1-.67-2l4.5-9a1.5,1.5,0,1,1,2.68,1.34l-4.5,9A1.49,1.49,0,0,1,63.5,107.49Z" class="cls-2"></path>
            <path d="M66.5,118.49a1.56,1.56,0,0,1-.67-.15,1.51,1.51,0,0,1-.67-2L75,96.57a1.5,1.5,0,0,1,2.69,1.34l-9.88,19.75A1.49,1.49,0,0,1,66.5,118.49Z" class="cls-2"></path>
            <path d="M91.92,111.38a1.5,1.5,0,0,1-1.5-1.5v-23H43.85a1.5,1.5,0,1,1,0-3H91.92a1.5,1.5,0,0,1,1.5,1.5v24.54A1.5,1.5,0,0,1,91.92,111.38Z" class="cls-2"></path>
            <path d="M91.92,127.51h0l-35.15,0a1.5,1.5,0,0,1,0-3H90.42v-4.75a1.5,1.5,0,0,1,3,0V126a1.5,1.5,0,0,1-1.5,1.5Z" class="cls-2"></path>
            <path d="M45,127.49H32a1.5,1.5,0,0,1,0-3H45a1.5,1.5,0,0,1,0,3Z" class="cls-2"></path>
            <path d="M92.31,176.21H53.24V154.58a17,17,0,0,1,17-17H92.31Z" class="cls-9"></path>
            <path d="M58.48,176.21S58.27,157,72.23,151.67,92.31,149,92.31,149v27.19Z" class="cls-10"></path>
            <path d="M92.31,177.71H53.24a1.5,1.5,0,0,1-1.5-1.5v-22a18.19,18.19,0,0,1,18.18-18.17h8.86a1.5,1.5,0,0,1,0,3H69.92a15.2,15.2,0,0,0-15.18,15.17v20.47H90.81V139.07H85.54a1.5,1.5,0,0,1,0-3h6.77a1.5,1.5,0,0,1,1.5,1.5v38.64A1.5,1.5,0,0,1,92.31,177.71Z" class="cls-2"></path>
            <path d="M33.58,155.66a10.42,10.42,0,1,0,0-20.83H30.22A112,112,0,0,0,28.72,153v2.62Z" class="cls-10"></path>
            <path d="M30.14,135.42A111.76,111.76,0,0,0,28.72,153v2.42a10.42,10.42,0,0,0,1.42-20Z" class="cls-9"></path>
            <path d="M33.58,157.16H28.72a1.5,1.5,0,0,1-1.5-1.5V153a113.89,113.89,0,0,1,1.52-18.46,1.5,1.5,0,0,1,1.48-1.25h3.36a11.92,11.92,0,1,1,0,23.83Zm-3.36-3h3.36a8.92,8.92,0,1,0,0-17.83H31.5A110.82,110.82,0,0,0,30.22,153Z" class="cls-2"></path>
            <circle r="22.15" cx="85.52" class="cls-7" cy="178.67"></circle>
            <path d="M85.52,202.33a23.66,23.66,0,1,1,23.65-23.66A23.69,23.69,0,0,1,85.52,202.33Zm0-44.31a20.66,20.66,0,1,0,20.65,20.65A20.68,20.68,0,0,0,85.52,158Z" class="cls-2"></path>
            <circle r="18.3" cx="85.52" class="cls-8" cy="178.67"></circle>
            <circle r="14.07" cx="85.52" class="cls-6" cy="178.67"></circle>
            <circle r="9.83" cx="85.52" class="cls-3" cy="178.67"></circle>
            <path d="M85.52,194.24a15.57,15.57,0,1,1,15.57-15.57A15.58,15.58,0,0,1,85.52,194.24Zm0-28.14a12.57,12.57,0,1,0,12.57,12.57A12.59,12.59,0,0,0,85.52,166.1Z" class="cls-2"></path>
            <circle r="22.15" cx="193.81" class="cls-7" cy="178.67"></circle>
            <path d="M193.81,202.33a23.66,23.66,0,1,1,23.66-23.66A23.68,23.68,0,0,1,193.81,202.33Zm0-44.31a20.66,20.66,0,1,0,20.66,20.65A20.67,20.67,0,0,0,193.81,158Z" class="cls-2"></path>
            <circle r="18.1" cx="193.81" class="cls-8" cy="178.67"></circle>
            <circle r="14.07" cx="193.81" class="cls-6" cy="178.67"></circle>
            <circle r="10" cx="193.81" class="cls-3" cy="178.67"></circle>
            <path d="M193.81,194.24a15.57,15.57,0,1,1,15.57-15.57A15.58,15.58,0,0,1,193.81,194.24Zm0-28.14a12.57,12.57,0,1,0,12.57,12.57A12.59,12.59,0,0,0,193.81,166.1Z" class="cls-2"></path>
            <path d="M54.36,68.33H99a1.72,1.72,0,0,0,1.71-1.71v-10a1.32,1.32,0,0,0-1.27-1.32c-5.72-.26-29.64-.55-45.68,11.06A1.11,1.11,0,0,0,54.36,68.33Z" class="cls-11"></path>
            <path d="M60.28,62.38s32.83-1.37,40.39,0v4.24l-45.57.54Z" class="cls-12"></path>
            <path d="M99,69.83H54.36a2.61,2.61,0,0,1-1.52-4.73C69.05,53.37,92.63,53.45,99.47,53.76a2.82,2.82,0,0,1,2.7,2.82v10A3.21,3.21,0,0,1,99,69.83Zm-43.35-3H99a.22.22,0,0,0,.21-.21V56.75C94.19,56.54,71.24,56.23,55.61,66.83Z" class="cls-2"></path>
            <circle r="4.5" cx="85.33" class="cls-2" cy="178.33"></circle>
            <circle r="4.5" cx="193.33" class="cls-2" cy="178.33"></circle>
            <path d="M126,194.24h-9.76a1.5,1.5,0,0,1,0-3H126a1.5,1.5,0,0,1,0,3Z" class="cls-2"></path>
            <path d="M159.13,194.24H139.47a1.5,1.5,0,0,1,0-3h19.66a1.5,1.5,0,0,1,0,3Z" class="cls-2"></path>
        </g>
    </g>
</svg>