<svg width="128" id="图层_1" viewBox="0 0 256 256" xmlns="http://www.w3.org/2000/svg" height="128" data-name="图层 1" style="font-size: 128px;">
    <defs>
        <style>.cls-1{fill:#666;}.cls-2{fill:#490000;}.cls-3{fill:#e2bd81;}.cls-4{fill:#7ecc52;}.cls-5{fill:#893b2e;}.cls-6{fill:#b6d9d9;}.cls-7{fill:#fff;}</style>
    </defs>
    <title>厢式货车</title>
    <g transform="matrix(0.27826197,0,0,0.27826197,-14.421942,-14.414475)">
        <path d="M537,627l-69.8,2.24,4.64,125.57s233-2,326-4.11c101.67-2.24,143.95,20.24,139.41-81,0-65.21-4.66-47.24-4.66-47.24Z" class="cls-1"></path>
        <path d="M462.06,765l-5.38-145.61,80-2.55,390.61-4.46a10.86,10.86,0,0,1,6.64-2.34c12.31,0,13.47,10.54,13.47,59.65,1.71,38.48-3.19,61-16.4,74.83-17,17.79-44.07,17.47-85.29,16.58-14.16-.35-30-.74-47.66-.29-92,2-323.79,4.08-326.13,4.11Zm15.66-126,3.9,105.54c45.36-.43,235-2.25,316-4,18-.37,34.19,0,48.56.32,34.92.76,59,1.37,70.19-10.31,8.78-9.2,12.2-28.38,10.78-60.39,0-19.79-.45-31.07-.9-37.48Z" class="cls-2"></path>
        <path d="M498.75,488.3c0-69.71-11.89-266,17.93-282s144.36-13.5,240.67-13.5,159.21-1.16,184.44,24.73,20.27,191,18,278.68S957.49,667.6,930,683.51s-142.24,8.68-220.2,8.68-183.49,7.25-204.15-16.66S498.75,576,498.75,488.3Z" class="cls-3"></path>
        <path d="M832.87,704c-20.72,0-42.75-.42-64.31-.84-36.91-.69-69-.88-104.25-.29-16.21.26-32.66.52-48.55.52-71.59,0-104.62-6-117.8-21.19-16.87-19.56-14.79-60.49-11.89-117.16,1.19-23.28,2.53-49.66,2.53-76.71,0-13.25-.42-31.12-.92-51.47-3.59-148.3-.82-226,24.22-239.42,23.07-12.36,84.38-14.84,175.81-14.84l92.73.13c87.75,0,142.82,1.35,168.59,27.81,25.46,26.12,24.39,152.35,21.06,279.43l-.63,24.91c-2.43,99.08-5.38,160.65-34.4,177.44C920.88,700.49,890.33,704,832.87,704ZM709.78,682c18.24,0,38.51.4,59.17.82,21.43.42,43.33.84,63.92.84,18.93,0,76.55,0,92-9,20.66-12,22.58-90.81,24.27-160.39l.63-25c1.9-72.56,6.33-242.55-15.29-264.74C914.82,204.45,863.18,203,780.44,203l-92.73-.13c-50,0-143,0-166.24,12.44C502.89,226.51,506.58,378.94,508,436.35c.5,20.53.95,38.56.95,51.95,0,27.58-1.37,54.22-2.58,77.76-2.46,48-4.57,89.46,7,102.85,12.26,14.18,80.13,14.18,102.46,14.18,15.78,0,32.13-.26,48.23-.52C679.73,682.3,695.23,682,709.78,682Z" class="cls-2"></path>
        <path d="M75.33,730c16.45,31,180.42,24.75,396.35,24.75,31.26,0,25.07-110,27-224.52,2.16-126.23,9.89-258.37-9-265.43C458.11,253,421,258.59,381.22,267.26c-107.68,23.49-131,71-137.62,100.51-9,40.48-22.51,90-65.24,123.73s-32.31,19.74-81,60.72C54.64,588.2,55.08,691.77,75.33,730Z" class="cls-4"></path>
        <path d="M300,765.44c-150.32,0-219.72-4.43-233.61-30.69C45.65,695.62,41.69,585.86,90.85,544.47c27.6-23.24,36.48-29.07,46.74-35.82,7.83-5.14,15.94-10.46,34.5-25.12,39.56-31.26,52.56-77.28,61.63-118,11.88-53.35,60.78-89.75,145.34-108.2,39-8.51,82.87-13.81,114.18-2,20.27,7.59,20.82,59.1,17.16,204.38-.58,23.2-1.19,47.06-1.58,70.72-.34,20.09-.45,40-.53,59.31-.45,105.49-.76,175.18-36.61,175.18-32.66,0-64.1.13-94.05.26C350.4,765.31,324.44,765.44,300,765.44ZM448.51,268.18c-21,0-43.73,4.33-65.13,9C307.23,293.78,263.53,325,253.49,370c-9.81,44.07-24,94.1-68.85,129.47-19.25,15.19-28.1,21-35.93,26.15C139,532,130.6,537.51,103.93,560c-36.77,30.95-39.17,128.4-19.64,165.3C94.81,745.14,233.4,745.14,300,745.14c24.43,0,50.37-.1,77.55-.24,30-.13,61.47-.29,94.15-.29,15.66,0,16.08-97,16.34-155,.08-19.32.19-39.38.5-59.55.42-23.72,1-47.63,1.61-70.87,1.95-77.53,4.38-174-5.56-185.86C475.16,270.19,462.88,268.18,448.51,268.18Z" class="cls-2"></path>
        <path d="M185.64,749.91a80.9,80.9,0,1,0,80.87-80.86A80.92,80.92,0,0,0,185.64,749.91Z" class="cls-5"></path>
        <path d="M266.51,841a91,91,0,1,1,91.06-91.07A91.15,91.15,0,0,1,266.51,841Zm0-161.79a70.75,70.75,0,1,0,70.77,70.72A70.78,70.78,0,0,0,266.51,679.19Z" class="cls-2"></path>
        <path d="M223.44,749.91a43.07,43.07,0,1,0,43.07-43A43,43,0,0,0,223.44,749.91Z" class="cls-6"></path>
        <path d="M280.79,750.47a15,15,0,1,1-15-14.92A15,15,0,0,1,280.79,750.47Z" class="cls-2"></path>
        <path d="M676,749.91a80.9,80.9,0,1,0,80.87-80.86A80.93,80.93,0,0,0,676,749.91Z" class="cls-5"></path>
        <path d="M756.85,841a91,91,0,1,1,91.07-91.07A91.15,91.15,0,0,1,756.85,841Zm0-161.79a70.75,70.75,0,1,0,70.78,70.72A70.78,70.78,0,0,0,756.85,679.19Z" class="cls-2"></path>
        <path d="M713.78,749.91a43.07,43.07,0,1,0,43.07-43A43.05,43.05,0,0,0,713.78,749.91Z" class="cls-6"></path>
        <path d="M771.14,750.47a15,15,0,1,1-15-14.92A15,15,0,0,1,771.14,750.47Z" class="cls-2"></path>
        <path d="M291.23,527.55c-18-27-22.56-134.53,17.92-172.75s126.05-45.42,130.53-7.17,18,168.69,4.51,182.19S305.2,548.48,291.23,527.55Z" class="cls-6"></path>
        <path d="M363.53,551.75c-45.33,0-72.51-6.25-80.74-18.56-21.53-32.34-24.35-144.47,19.41-185.77,22.35-21.09,59.75-35.27,93.12-35.27,31.58,0,51.93,12.81,54.43,34.29,9.25,78.42,17,175.13,1.61,190.55C437,551.33,371,551.75,363.53,551.75Zm31.79-219.33c-28.1,0-60.65,12.23-79.21,29.76-37.06,35-31.63,137-16.45,159.76,3,3.63,23,9.54,63.87,9.54,38.2,0,68.67-5.24,73.7-9,5.72-9.81,2.66-86.38-7.62-173.63C427.82,333.61,402.91,332.42,395.32,332.42Z" class="cls-2"></path>
        <line y1="586.04" x2="439.73" x1="396.98" y2="583.83" class="cls-6"></line>
        <path d="M397,596.19a10.14,10.14,0,0,1-.53-20.27l42.76-2.21c6.4-.4,10.33,4,10.65,9.59a10.15,10.15,0,0,1-9.6,10.65l-42.75,2.21C397.32,596.16,397.14,596.19,397,596.19Z" class="cls-2"></path>
        <path d="M112.52,588.31s17.37-30.58,49.76-41,30.16,15.16,4,22.17S112.52,588.31,112.52,588.31Z" class="cls-7"></path>
        <path d="M203.54,532.06s2.26-15.76,20.24-29.26S253,520.83,203.54,532.06Z" class="cls-7"></path>
    </g>
</svg>