<svg height="128" x="0px" xmlns="http://www.w3.org/2000/svg" xml:space="preserve" xmlns:xlink="http://www.w3.org/1999/xlink" y="0px" id="图层_1" width="128" version="1.1" style="font-size: 128px;" viewBox="0 0 256 256">
    <style type="text/css">
	.st0{fill:#FFFFFF;}
	.st1{fill:#FFE636;}
	.st2{fill:#FFCE00;}
	.st3{fill:#48BDFD;}
	.st4{fill:#00A4FD;}
	.st5{fill:#FF9629;}
	.st6{fill:#FF8304;}
	.st7{fill:none;stroke:#000000;stroke-width:3;stroke-linecap:round;stroke-linejoin:round;stroke-miterlimit:10;}
	.st8{fill:#6DCAFD;}
</style>
    <g transform="matrix(0.99999998,0,0,0.99999998,-9.9999997e-07,-1.1447812e-06)">
        <g transform="matrix(1.236715,0,0,1.236715,-30.670531,-37.110787)">
            <g id="图层_5">
                <path class="st0" d="M176.3,157.8h-18.8c-2.6,0-4.7-3-5-7.1l-4-58.1c-0.3-4.7,2-8.8,5-8.8h17.8c2.5,0,4.6,2.9,5,6.9l5,58.1
		C181.7,153.6,179.4,157.8,176.3,157.8z"></path>
                <path class="st1" d="M177.4,157.8h-14.9c-2,0-3.7-3-3.9-7.1l-3.2-58.1c-0.3-4.7,1.6-8.8,3.9-8.8h14.1c2,0,3.7,2.9,3.9,6.9l3.9,58.1
		C181.6,153.6,179.8,157.8,177.4,157.8z"></path>
                <path class="st2" d="M181.3,148.8l-3.9-58.1c-0.3-3.9-1.9-6.9-3.9-6.9H168c1.4,0,2.6,2.9,2.7,6.9l2.8,58.1c0.2,4.7-1.1,9-2.7,9h6.7
		C179.8,157.8,181.6,153.6,181.3,148.8z"></path>
                <path class="st0" d="M225,157.8h-10.4c-2.6,0-4.7-3-5-7.1l-4-58.1c-0.3-4.7,2-8.8,5-8.8h14.2c2.8,0,5,3.5,5,7.9l0.2,58.1
		C230.1,154.2,227.8,157.8,225,157.8z"></path>
                <path class="st1" d="M226.6,157.8h-7.2c-1.8,0-3.3-3-3.5-7.1l-2.8-58.1c-0.2-4.7,1.4-8.8,3.5-8.8h9.9c1.9,0,3.5,3.5,3.5,7.9
		l0.1,58.1C230.1,154.2,228.5,157.8,226.6,157.8z"></path>
                <path class="st2" d="M229.9,91.8c0-4.4-1.6-7.9-3.5-7.9h-4.6c1.3,0,2.3,3.5,2.3,7.9l0.1,58.1c0,4.4-1,8-2.3,8h4.6
		c1.9,0,3.5-3.6,3.5-8L229.9,91.8z"></path>
                <g>
                    <path class="st0" d="M147.8,157.8h-28.3c-2.6,0-4.7-1.9-5-4.5l-9.7-91.2c-0.3-3,2-5.5,5-5.5h27.4c2.5,0,4.7,1.9,5,4.4l10.6,91.2
			C153.1,155.2,150.8,157.8,147.8,157.8z"></path>
                </g>
                <path class="st3" d="M146.3,152h-22.9c-2.2-0.9-1.7-2.3-1.8-3.8l-10.1-86.5c-0.3-2.8,1.6-5.2,4-5.2h22.2c2.1,0,3.8,1.8,4,4.2
		l8.6,86.1C150.7,149.5,148.8,152,146.3,152z"></path>
                <path class="st4" d="M150.4,146.7l-8.6-86.1c-0.2-2.4-2-4.2-4-4.2h-6.3c1.6,0,2.9,1.8,3.1,4.2l8.5,85.4c0.4,3.5-1.4,6.2-2,5.9h5.4
		C148.8,152,150.7,149.5,150.4,146.7z"></path>
                <path class="st0" d="M204.6,157.8h-18.8c-2.6,0-4.7-3-5-7.1l-4-58.1c-0.3-4.7,2-8.8,5-8.8h17.8c2.5,0,4.6,2.9,5,6.9l5,58.1
		C210,153.6,207.6,157.8,204.6,157.8z"></path>
                <path class="st5" d="M205.8,157.8h-14.4c-2,0-3.6-3-3.8-7.1l-3.1-58.1c-0.2-4.7,1.5-8.8,3.8-8.8H202c1.9,0,3.5,2.9,3.8,6.9
		l3.8,58.1C209.9,153.6,208.1,157.8,205.8,157.8z"></path>
                <path class="st6" d="M209.6,148.8l-3.8-58.1c-0.3-3.9-1.9-6.9-3.8-6.9h-6.4c1.2,0,2.2,2.9,2.4,6.9l2.4,58.1c0.2,4.7-0.9,9-2.4,9
		h7.8C208.1,157.8,209.9,153.6,209.6,148.8z"></path>
                <path class="st7" d="M147.8,157.8h-28.3c-2.6,0-4.7-1.9-5-4.5l-9.7-91.2c-0.3-3,2-5.5,5-5.5h27.4c2.5,0,4.7,1.9,5,4.4l10.6,91.2
		C153.1,155.2,150.8,157.8,147.8,157.8z"></path>
                <g>
                    <path d="M176.3,159.3h-18.8c-3.4,0-6.1-3.6-6.5-8.5l-4-58.1c-0.2-3.3,0.8-6.6,2.6-8.5c1.1-1.2,2.5-1.8,3.9-1.8h5.7
			c0.8,0,1.5,0.7,1.5,1.5s-0.7,1.5-1.5,1.5h-5.7c-0.7,0-1.3,0.5-1.7,0.9c-1.2,1.3-1.9,3.8-1.8,6.3l4,58.1c0.2,3.5,2,5.7,3.5,5.7
			h18.8c0.7,0,1.3-0.5,1.7-0.9c1.3-1.4,2-3.9,1.7-6.4l-5-58.1c-0.3-3-1.8-5.5-3.5-5.5H168c-0.8,0-1.5-0.7-1.5-1.5s0.7-1.5,1.5-1.5
			h3.4c3.3,0,6,3.5,6.4,8.2l5,58.1c0.3,3.4-0.7,6.7-2.5,8.7C179.2,158.6,177.8,159.3,176.3,159.3z"></path>
                </g>
                <g>
                    <path d="M204.6,159.3h-18.8c-3.4,0-6.1-3.6-6.5-8.5l-4-58.1c-0.2-3.3,0.8-6.6,2.6-8.5c1.1-1.2,2.5-1.8,3.9-1.8h17.8
			c3.3,0,6,3.5,6.4,8.2l5,58.1c0.3,3.4-0.7,6.7-2.5,8.7C207.4,158.6,206,159.3,204.6,159.3z M181.8,85.4c-0.7,0-1.3,0.5-1.7,0.9
			c-1.2,1.3-1.9,3.8-1.8,6.3l4,58.1c0.2,3.5,2,5.7,3.5,5.7h18.8c0.7,0,1.3-0.5,1.7-0.9c1.3-1.4,2-3.9,1.7-6.4L203,91
			c-0.3-3-1.8-5.5-3.5-5.5h-17.7V85.4z"></path>
                </g>
                <path class="st7" d="M225,157.8h-10.4c-2.6,0-4.7-3-5-7.1l-4-58.1c-0.3-4.7,2-8.8,5-8.8h14.2c2.8,0,5,3.5,5,7.9l0.2,58.1
		C230.1,154.2,227.8,157.8,225,157.8z"></path>
                <g>
                    <path d="M225,159.3h-10.4c-3.4,0-6.1-3.6-6.5-8.5l-4-58.1c-0.2-3.3,0.8-6.6,2.6-8.5c1.1-1.2,2.5-1.8,3.9-1.8h14.2
			c3.6,0,6.5,4.1,6.5,9.4l0.2,58.1c0,3.1-1,6-2.8,7.8C227.7,158.7,226.4,159.3,225,159.3z M210.7,85.4c-0.7,0-1.3,0.5-1.7,0.9
			c-1.2,1.3-1.9,3.8-1.8,6.3l4,58.1c0.2,3.5,2,5.7,3.5,5.7H225c0.6,0,1.1-0.3,1.6-0.8c1.2-1.2,1.9-3.3,1.9-5.7l-0.2-58.1
			c0-3.8-1.9-6.4-3.5-6.4C224.8,85.4,210.7,85.4,210.7,85.4z"></path>
                </g>
                <g>
                    <path class="st0" d="M105.3,109.8c-2.8,0-5.1-2.3-5.1-5.1v-3.3V66.6c0-2.8-2.3-5.1-5.1-5.1h-5.2c-16.4,0-29.7,13.3-29.7,29.7l0,0
			c0,2.8-2.3,5.1-5.1,5.1H42.9c-2.8,0-5.1,2.3-5.1,5.1v45.5c0,2.8-2.3,5.1-5.1,5.1h-1.2c-2.8,0-5.1,2.3-5.1,5.1v9
			c0,2.8,2.3,5.1,5.1,5.1h68.8h9.8h115.3c2.8,0,5.1-2.3,5.1-5.1v-9v-42.2c0-2.8-2.3-5.1-5.1-5.1
			C225.4,109.8,105.3,109.8,105.3,109.8z"></path>
                </g>
                <path class="st3" d="M110.6,110c-1.7,0.9-9.8,0.3-10.9-3.4l0,0l0.5-32.4c0.9-1.4,0.7-10.9-2-10.9l-3-1c-15.8,0-28,12.7-28,29.1l0,0
		c0,2.8-2.2,5.1-4.9,5.1H50.6c-2.7,0-4.9,2.3-4.9,5.1V147c0,2.8-2.2,5.1-4.9,5.1h-1.2c-2.7,0-4.9,2.3-4.9,5.1v9
		c0,2.8,2.2,5.1,4.9,5.1h66.1h9.4h110.8c2.7,0,4.9-2.3,4.9-5.1v-9V115c0-2.8-2.2-5.1-4.9-5.1L110.6,110z"></path>
                <g>
                    <path class="st4" d="M225.8,110h-20.6c2.4,0,4.4,2.3,4.4,5.1v42.2v9c0,2.8-2,5.1-4.4,5.1h20.6c2.7,0,4.9-2.3,4.9-5.1v-9v-42.2
			C230.7,112.3,228.5,110,225.8,110z"></path>
                    <path class="st4" d="M91.3,63.2c2.4,0,2.6,9.5,1.8,10.9l-0.4,32.4c1,3.7,8.2,4.3,9.7,3.4h2.4c-2.3-0.5-4.6-1.6-5.1-3.4l0.5-32.4
			c0.9-1.4,0.7-10.9-2-10.9l-3-1c-1.8,0-3.5,0.2-5.2,0.5L91.3,63.2z"></path>
                </g>
                <g>
                    <path class="st8" d="M226.1,168.4H121.5h-8.9H50.3c-2.6,0-4.6-2.2-4.6-4.8V155c0-2.7,2.1-4.8,4.6-4.8h1.1c2.6,0,4.6-2.2,4.6-4.8
			v-42.9c0-2.7,2.1-4.8,4.6-4.8h11c2.6,0,4.6-2.2,4.6-4.8c0-14.5,10.1-26,23.7-27.4c-0.4-1.3-1-2.2-1.8-2.2l-3-1
			c-15.8,0-28,12.7-28,29.1l0,0c0,2.8-2.2,5.1-4.9,5.1H50.6c-2.7,0-4.9,2.3-4.9,5.1V147c0,2.8-2.2,5.1-4.9,5.1h-1.2
			c-2.7,0-4.9,2.3-4.9,5.1v9c0,2.8,2.2,5.1,4.9,5.1h66.1h9.4h110.8c2.7,0,4.9-2.3,4.9-5.1v-2.8C230.7,166.2,228.7,168.4,226.1,168.4
			z"></path>
                    <path class="st8" d="M225.8,110H110.6l0,0c2.6,0.9,5.8,0.9,6.8,0.4h108.8c2.6,0,4.6,2.2,4.6,4.8v-0.1
			C230.7,112.3,228.5,110,225.8,110z"></path>
                </g>
                <g>
                    <path d="M225.2,172.8h-90.7c-0.8,0-1.5-0.7-1.5-1.5s0.7-1.5,1.5-1.5h90.7c2,0,3.6-1.6,3.6-3.6V115c0-2-1.6-3.6-3.6-3.6H105.3
			c-3.7,0-6.6-3-6.6-6.6V66.6c0-2-1.6-3.6-3.6-3.6h-5.2c-4.5,0-8.9,1-12.9,3.1c-0.7,0.4-1.6,0.1-2-0.7c-0.4-0.7-0.1-1.6,0.7-2
			c4.4-2.3,9.2-3.4,14.2-3.4h5.2c3.7,0,6.6,3,6.6,6.6v38.1c0,2,1.6,3.6,3.6,3.6h119.9c3.7,0,6.6,3,6.6,6.6v51.2
			C231.8,169.8,228.9,172.8,225.2,172.8z"></path>
                </g>
                <g>
                    <path d="M128.3,172.8h-3.7c-0.8,0-1.5-0.7-1.5-1.5s0.7-1.5,1.5-1.5h3.7c0.8,0,1.5,0.7,1.5,1.5S129.1,172.8,128.3,172.8z"></path>
                </g>
                <g>
                    <g>
                        <path d="M109.9,172.8H31.4c-3.7,0-6.6-3-6.6-6.6v-9c0-3.7,3-6.6,6.6-6.6h1.2c2,0,3.6-1.6,3.6-3.6v-45.5c0-3.7,3-6.6,6.6-6.6H55
				c2,0,3.6-1.6,3.6-3.6c0-5.4,1.4-10.8,4.1-15.5c0.4-0.7,1.3-1,2-0.6c0.7,0.4,1,1.3,0.6,2c-2.4,4.2-3.7,9.1-3.7,14
				c0,3.7-3,6.6-6.6,6.6H42.9c-2,0-3.6,1.6-3.6,3.6v45.5c0,3.7-3,6.6-6.6,6.6h-1.2c-2,0-3.6,1.6-3.6,3.6v9c0,2,1.6,3.6,3.6,3.6H110
				c0.8,0,1.5,0.7,1.5,1.5S110.8,172.8,109.9,172.8z"></path>
                    </g>
                </g>
                <path class="st0" d="M82.3,93.9h-7.1c-2.8,0-5-2.2-5-5v-2.2c0-6.7,5.4-12.1,12.1-12.1l0,0c2.8,0,5,2.2,5,5v9.3
		C87.3,91.7,85.1,93.9,82.3,93.9z"></path>
                <g>
                    <path class="st0" d="M86.2,115.2h-14c-2.4,0-4.3-1.9-4.3-4.3l0,0c0-2.4,1.9-4.3,4.3-4.3h14c2.4,0,4.3,1.9,4.3,4.3l0,0
			C90.5,113.2,88.6,115.2,86.2,115.2z"></path>
                </g>
                <g>
                    <path d="M86.2,116.7h-14c-3.2,0-5.8-2.6-5.8-5.8s2.6-5.8,5.8-5.8h14c3.2,0,5.8,2.6,5.8,5.8S89.4,116.7,86.2,116.7z M72.3,108
			c-1.6,0-2.8,1.3-2.8,2.8s1.3,2.8,2.8,2.8h14c1.6,0,2.8-1.3,2.8-2.8s-1.3-2.8-2.8-2.8H72.3z"></path>
                </g>
                <g>
                    <path class="st1" d="M146.3,197.5L146.3,197.5c-0.7,0.1-1.5-0.3-1.6-1.1l-0.9-4.5c-0.1-0.7,0.3-1.5,1.1-1.6l0,0
			c0.7-0.1,1.5,0.3,1.6,1.1l0.9,4.5C147.5,196.6,147,197.4,146.3,197.5z"></path>
                    <path class="st1" d="M143.9,199.1L143.9,199.1c-0.4,0.6-1.3,0.8-1.9,0.4l-3.8-2.5c-0.6-0.4-0.8-1.3-0.4-1.9l0,0
			c0.4-0.6,1.3-0.8,1.9-0.4l3.8,2.5C144.2,197.6,144.3,198.4,143.9,199.1z"></path>
                    <path class="st1" d="M156.7,207.4L156.7,207.4c-0.4,0.6-1.3,0.8-1.9,0.4l-3.8-2.5c-0.6-0.4-0.8-1.3-0.4-1.9l0,0
			c0.4-0.6,1.3-0.8,1.9-0.4l3.8,2.5C157,205.9,157.1,206.8,156.7,207.4z"></path>
                    <path class="st1" d="M143.4,201.8L143.4,201.8c0.1,0.7-0.3,1.5-1.1,1.6l-4.5,0.9c-0.7,0.1-1.5-0.3-1.6-1.1l0,0
			c-0.1-0.7,0.3-1.5,1.1-1.6l4.5-0.9C142.5,200.6,143.2,201.1,143.4,201.8z"></path>
                    <path class="st1" d="M144.9,204.2L144.9,204.2c0.6,0.4,0.8,1.3,0.4,1.9l-2.5,3.8c-0.4,0.6-1.3,0.8-1.9,0.4l0,0
			c-0.6-0.4-0.8-1.3-0.4-1.9l2.5-3.8C143.4,203.9,144.3,203.7,144.9,204.2z"></path>
                    <path class="st1" d="M153.2,191.7L153.2,191.7c0.6,0.4,0.8,1.3,0.4,1.9l-2.5,3.8c-0.4,0.6-1.3,0.8-1.9,0.4l0,0
			c-0.6-0.4-0.8-1.3-0.4-1.9l2.5-3.8C151.7,191.5,152.6,191.3,153.2,191.7z"></path>
                    <path class="st1" d="M147.7,204.7L147.7,204.7c0.7-0.1,1.5,0.3,1.6,1.1l0.9,4.5c0.1,0.7-0.3,1.5-1.1,1.6l0,0
			c-0.7,0.1-1.5-0.3-1.6-1.1l-0.9-4.5C146.5,205.6,147,204.9,147.7,204.7z"></path>
                    <path class="st1" d="M150.6,200.4L150.6,200.4c-0.1-0.7,0.3-1.5,1.1-1.6l4.5-0.9c0.7-0.1,1.5,0.3,1.6,1.1l0,0
			c0.1,0.7-0.3,1.5-1.1,1.6l-4.5,0.9C151.5,201.6,150.7,201.1,150.6,200.4z"></path>
                </g>
                <circle cy="184" r="5.1" cx="111.4" class="st5"></circle>
                <path class="st0" d="M52.4,144.2H35.8c-3.6,0-6.6-3-6.6-6.6l0,0c0-3.6,3-6.6,6.6-6.6h16.6c3.6,0,6.6,3,6.6,6.6l0,0
		C59,141.3,56.1,144.2,52.4,144.2z"></path>
                <path class="st5" d="M52.4,144.2h-9.7c-3.6,0-6.6-3-6.6-6.6l0,0c0-3.6,3-6.6,6.6-6.6h9.7c3.6,0,6.6,3,6.6,6.6l0,0
		C59,141.3,56.1,144.2,52.4,144.2z"></path>
                <path class="st6" d="M52.4,131H46c3.6,0,6.6,3,6.6,6.6s-3,6.6-6.6,6.6h6.4c3.6,0,6.6-3,6.6-6.6S56.1,131,52.4,131z"></path>
                <path class="st0" d="M49.5,157.8H32.9c-3.6,0-6.6-3-6.6-6.6l0,0c0-3.6,3-6.6,6.6-6.6h16.6c3.6,0,6.6,3,6.6,6.6l0,0
		C56.1,154.9,53.2,157.8,49.5,157.8z"></path>
                <g>
                    <path d="M52.4,145.7H35.8c-4.5,0-8.1-3.6-8.1-8.1s3.6-8.1,8.1-8.1h16.6c4.5,0,8.1,3.6,8.1,8.1S56.9,145.7,52.4,145.7z M35.8,132.5
			c-2.8,0-5.1,2.3-5.1,5.1s2.3,5.1,5.1,5.1h16.6c2.8,0,5.1-2.3,5.1-5.1s-2.3-5.1-5.1-5.1H35.8z"></path>
                </g>
                <g>
                    <path d="M82.3,95.4h-7.1c-3.6,0-6.5-2.9-6.5-6.5v-2.2c0-7.5,6.1-13.6,13.6-13.6c3.6,0,6.5,2.9,6.5,6.5v9.3
			C88.8,92.5,85.9,95.4,82.3,95.4z M82.3,76.1c-5.8,0-10.6,4.7-10.6,10.6v2.2c0,1.9,1.6,3.5,3.5,3.5h7.1c1.9,0,3.5-1.6,3.5-3.5v-9.3
			C85.8,77.7,84.3,76.1,82.3,76.1z"></path>
                </g>
                <path class="st1" d="M49.7,157.8H40c-3.6,0-6.6-3-6.6-6.6l0,0c0-3.6,3-6.6,6.6-6.6h9.7c3.6,0,6.6,3,6.6,6.6l0,0
		C56.2,154.9,53.3,157.8,49.7,157.8z"></path>
                <path class="st2" d="M49.7,144.6h-6.4c3.6,0,6.6,3,6.6,6.6s-3,6.6-6.6,6.6h6.4c3.6,0,6.6-3,6.6-6.6S53.3,144.6,49.7,144.6z"></path>
                <g>
                    <path d="M49.5,159.3H32.9c-4.5,0-8.1-3.6-8.1-8.1s3.6-8.1,8.1-8.1h16.6c4.5,0,8.1,3.6,8.1,8.1S54,159.3,49.5,159.3z M32.9,146.1
			c-2.8,0-5.1,2.3-5.1,5.1s2.3,5.1,5.1,5.1h16.6c2.8,0,5.1-2.3,5.1-5.1s-2.3-5.1-5.1-5.1H32.9z"></path>
                </g>
                <circle cy="172.1" r="31.5" cx="65.7" class="st0"></circle>
                <circle cy="172.1" r="29" cx="68.2" class="st1"></circle>
                <circle cy="172.1" r="29" cx="68.2" class="st1"></circle>
                <path class="st2" d="M68.2,143c-15.6,0-28.3,12.3-29,27.6c0.7-14.3,12.5-25.6,27-25.6c14.9,0,27,12.1,27,27s-12.1,27-27,27
		c-14.5,0-26.3-11.4-27-25.6c0.7,15.4,13.4,27.6,29,27.6c16,0,29-13,29-29S84.2,143,68.2,143z"></path>
                <g>
                    <path d="M65.7,205.1c-18.2,0-33-14.8-33-33c0-2.2,0.2-4.5,0.7-6.7c0.2-0.8,1-1.3,1.8-1.2c0.8,0.2,1.3,1,1.2,1.8
			c-0.4,2-0.6,4-0.6,6.1c0,16.6,13.5,30,30,30s30-13.5,30-30s-13.5-30-30-30c-8,0-15.6,3.1-21.2,8.8c-0.6,0.6-1.5,0.6-2.1,0
			s-0.6-1.5,0-2.1c6.2-6.2,14.5-9.7,23.4-9.7c18.2,0,33,14.8,33,33S83.9,205.1,65.7,205.1z"></path>
                </g>
                <circle cy="172.1" r="18.4" cx="69.6" class="st5"></circle>
                <path class="st6" d="M69.6,153.7c-10.2,0-18.4,8.2-18.4,18.4c0-8.8,7.2-16,16-16s16,7.2,16,16s-7.2,16-16,16s-16-7.2-16-16
		c0,10.2,8.2,18.4,18.4,18.4S88,182.3,88,172.1S79.7,153.7,69.6,153.7z"></path>
                <g>
                    <path d="M65.7,195.9c-13.1,0-23.8-10.7-23.8-23.8s10.7-23.8,23.8-23.8s23.8,10.7,23.8,23.8C89.4,185.2,78.8,195.9,65.7,195.9z
			 M65.7,151.3c-11.5,0-20.8,9.3-20.8,20.8s9.3,20.8,20.8,20.8s20.8-9.3,20.8-20.8C86.4,160.6,77.1,151.3,65.7,151.3z"></path>
                </g>
                <g>
                    <path class="st0" d="M50.7,173.7c-0.8,0-1.5-0.7-1.5-1.5c0-4.3,1.3-8.3,3.8-11.8c0.5-0.7,1.4-0.8,2.1-0.3c0.7,0.5,0.8,1.4,0.3,2.1
			c-2.1,2.9-3.2,6.4-3.2,10C52.2,173.1,51.5,173.7,50.7,173.7z"></path>
                </g>
                <g>
                    <path class="st0" d="M61,157c-0.6,0-1.1-0.3-1.3-0.8c-0.4-0.7-0.1-1.6,0.7-2c0.4-0.2,0.8-0.4,1.2-0.5c0.8-0.3,1.6,0,2,0.8
			c0.3,0.8,0,1.6-0.8,2c-0.3,0.1-0.7,0.3-1,0.5C61.5,157,61.3,157,61,157z"></path>
                </g>
                <circle cy="171.1" r="31.5" cx="190.9" class="st0"></circle>
                <circle cy="171.1" r="29" cx="193.4" class="st1"></circle>
                <circle cy="171.1" r="29" cx="193.4" class="st1"></circle>
                <path class="st2" d="M193.4,142c-15.6,0-28.3,12.3-29,27.6c0.7-14.3,12.5-25.6,27-25.6c14.9,0,27,12.1,27,27s-12.1,27-27,27
		c-14.5,0-26.3-11.4-27-25.6c0.7,15.4,13.4,27.6,29,27.6c16,0,29-13,29-29S209.5,142,193.4,142z"></path>
                <g>
                    <path d="M190.9,204.1c-18.2,0-33-14.8-33-33c0-3.5,0.5-6.9,1.6-10.1c0.3-0.8,1.1-1.2,1.9-1c0.8,0.3,1.2,1.1,1,1.9
			c-1,3-1.4,6.1-1.4,9.2c0,16.6,13.5,30,30,30s30-13.5,30-30s-13.5-30-30-30c-8.7,0-17,3.8-22.7,10.4c-0.5,0.6-1.5,0.7-2.1,0.2
			s-0.7-1.5-0.2-2.1c6.3-7.2,15.4-11.4,25-11.4c18.2,0,33,14.8,33,33S209.1,204.1,190.9,204.1z"></path>
                </g>
                <circle cy="171.1" r="18.4" cx="194.8" class="st5"></circle>
                <path class="st6" d="M194.8,152.7c-10.2,0-18.4,8.2-18.4,18.4c0-8.8,7.2-16,16-16s16,7.2,16,16s-7.2,16-16,16s-16-7.2-16-16
		c0,10.2,8.2,18.4,18.4,18.4s18.4-8.2,18.4-18.4S205,152.7,194.8,152.7z"></path>
                <g>
                    <path d="M190.9,194.9c-13.1,0-23.8-10.7-23.8-23.8s10.7-23.8,23.8-23.8s23.8,10.7,23.8,23.8S204.1,194.9,190.9,194.9z
			 M190.9,150.3c-11.5,0-20.8,9.3-20.8,20.8s9.3,20.8,20.8,20.8s20.8-9.3,20.8-20.8S202.4,150.3,190.9,150.3z"></path>
                </g>
                <g>
                    <path class="st0" d="M176,172.7c-0.8,0-1.5-0.7-1.5-1.5c0-4.3,1.3-8.3,3.8-11.8c0.5-0.7,1.4-0.8,2.1-0.3c0.7,0.5,0.8,1.4,0.3,2.1
			c-2.1,2.9-3.2,6.4-3.2,10C177.5,172.1,176.8,172.7,176,172.7z"></path>
                </g>
                <g>
                    <path class="st0" d="M186.3,156c-0.5,0-1.1-0.3-1.3-0.8c-0.4-0.7-0.1-1.6,0.7-2c0.4-0.2,0.8-0.4,1.2-0.5c0.8-0.3,1.6,0,2,0.8
			s0,1.6-0.8,2c-0.3,0.1-0.7,0.3-1,0.5C186.8,156,186.5,156,186.3,156z"></path>
                </g>
                <circle cy="72" r="4.3" cx="169.3" class="st3"></circle>
            </g>
        </g>
    </g>
</svg>